<?xml version="1.0" encoding="utf-8"?>
<!-- Generator: Adobe Illustrator 16.0.0, SVG Export Plug-In . SVG Version: 6.00 Build 0)  -->
<!DOCTYPE svg PUBLIC "-//W3C//DTD SVG 1.1//EN" "http://www.w3.org/Graphics/SVG/1.1/DTD/svg11.dtd">
<svg version="1.1" id="Layer_1" xmlns="http://www.w3.org/2000/svg" xmlns:xlink="http://www.w3.org/1999/xlink" x="0px" y="0px"
	 width="612px" height="792px" viewBox="0 0 612 792" enable-background="new 0 0 612 792" xml:space="preserve">
<g>
	<g>
		<g>
			<path fill="#FACA32" d="M306.607,86.595c126.209,0,228.872,138.845,228.872,309.495c0,170.649-102.662,309.495-228.872,309.495
				c-126.209,0-228.875-138.846-228.875-309.495C77.731,225.44,180.398,86.595,306.607,86.595z M481.749,396.09
				c0-71.096-20.077-137.415-56.528-186.749c-32.9-44.506-75.026-69.016-118.614-69.016c-43.591,0-85.714,24.51-118.619,69.016
				c-36.445,49.334-56.522,115.652-56.522,186.749c0,71.094,20.078,137.414,56.522,186.748
				c32.905,44.507,75.028,69.019,118.619,69.019c43.587,0,85.713-24.512,118.614-69.019
				C461.672,533.504,481.749,467.185,481.749,396.09z"/>
			<path fill="#27649B" d="M306.607,76.605c131.92,0,238.862,143.044,238.862,319.485c0,176.441-106.941,319.484-238.862,319.484
				c-131.919,0-238.862-143.043-238.862-319.484C67.745,219.649,174.688,76.605,306.607,76.605z M535.479,396.09
				c0-170.65-102.662-309.495-228.872-309.495c-126.209,0-228.875,138.845-228.875,309.495
				c0,170.649,102.667,309.495,228.875,309.495C432.816,705.585,535.479,566.739,535.479,396.09z"/>
			<path fill="#FFFFFF" d="M417.185,215.301c35.192,47.604,54.568,111.832,54.568,180.794c0,68.966-19.376,133.191-54.568,180.798
				c-30.955,41.89-70.239,64.965-110.586,64.965c-40.345,0-79.598-23.075-110.556-64.965c-35.193-47.607-54.6-111.832-54.6-180.798
				c0-68.963,19.407-133.19,54.6-180.794c30.958-41.919,70.21-64.997,110.556-64.997
				C346.945,150.304,386.229,173.381,417.185,215.301z"/>
			<path fill="#27649B" d="M425.214,209.344c36.468,49.326,56.522,115.653,56.522,186.751c0,71.099-20.055,137.401-56.522,186.75
				c-32.881,44.499-75.007,68.996-118.615,68.996c-43.578,0-85.702-24.497-118.616-68.996c-36.438-49.35-56.52-115.651-56.52-186.75
				c0-71.098,20.083-137.425,56.52-186.751c32.914-44.495,75.038-69.024,118.616-69.024
				C350.207,140.32,392.333,164.85,425.214,209.344z M471.753,396.095c0-68.963-19.376-133.19-54.568-180.794
				c-30.955-41.919-70.239-64.997-110.586-64.997c-40.345,0-79.598,23.078-110.556,64.997c-35.193,47.604-54.6,111.832-54.6,180.794
				c0,68.966,19.407,133.191,54.6,180.798c30.958,41.89,70.21,64.965,110.556,64.965c40.347,0,79.631-23.075,110.586-64.965
				C452.377,529.286,471.753,465.062,471.753,396.095z"/>
			<polygon fill="#27649B" points="143.599,558.894 157.71,560.406 147.181,550.886 152.984,537.934 140.677,545.005 
				130.146,535.486 133.069,549.375 120.767,556.445 134.874,557.955 137.801,571.842 			"/>
			<polygon fill="#27649B" points="478.819,557.955 492.933,556.445 480.627,549.375 483.548,535.486 473.024,545.006 
				460.716,537.934 466.514,550.886 455.99,560.406 470.101,558.894 475.899,571.842 			"/>
		</g>
		<g>
			<path fill="#27649B" d="M113.257,520.298l-1.556-5.061l13.574-4.174c2.159-0.663,3.535-1.154,4.131-1.478
				c0.961-0.53,1.626-1.3,1.997-2.306c0.37-1.009,0.342-2.217-0.098-3.631c-0.44-1.436-1.065-2.428-1.88-2.978
				c-0.81-0.546-1.667-0.764-2.563-0.652c-0.902,0.117-2.343,0.479-4.328,1.092l-13.863,4.265l-1.557-5.06l13.163-4.051
				c3.009-0.925,5.179-1.444,6.503-1.551c1.325-0.109,2.529,0.072,3.611,0.544c1.082,0.472,2.066,1.244,2.951,2.32
				c0.885,1.073,1.631,2.604,2.239,4.586c0.741,2.395,1.024,4.296,0.851,5.702c-0.173,1.404-0.59,2.604-1.255,3.592
				c-0.659,0.99-1.44,1.748-2.337,2.274c-1.336,0.772-3.402,1.589-6.209,2.454L113.257,520.298z"/>
			<path fill="#27649B" d="M130.199,485.064l-25.621,5.572l-1.093-5.034l14.829-14.208l-17.108,3.721l-1.047-4.806l25.62-5.572
				l1.128,5.19l-14.459,13.961l16.709-3.633L130.199,485.064z"/>
			<path fill="#27649B" d="M124.575,457.066l-25.904,4.073l-0.822-5.228l25.903-4.076L124.575,457.066z"/>
			<path fill="#27649B" d="M121.942,437.914l-25.123,12.01l-0.59-5.714l18.626-8.587l-19.962-4.4l-0.572-5.587l27.043,6.653
				L121.942,437.914z"/>
			<path fill="#27649B" d="M120.166,417.987l-26.211,0.839l-0.619-19.436l4.432-0.138l0.451,14.14l5.81-0.188l-0.417-13.157
				l4.416-0.139l0.422,13.156l7.128-0.228l-0.468-14.642l4.42-0.142L120.166,417.987z"/>
			<path fill="#27649B" d="M119.546,391.341l-26.198-1.039l0.439-11.136c0.11-2.8,0.429-4.825,0.949-6.075
				c0.521-1.249,1.395-2.234,2.633-2.948c1.232-0.714,2.621-1.042,4.172-0.977c1.966,0.075,3.564,0.717,4.802,1.927
				c1.231,1.203,1.972,2.964,2.215,5.276c0.712-1.117,1.481-2.034,2.309-2.745c0.827-0.715,2.285-1.662,4.374-2.846l5.237-2.993
				l-0.249,6.327l-5.855,3.6c-2.089,1.274-3.408,2.154-3.958,2.63c-0.549,0.481-0.937,0.999-1.157,1.548
				c-0.214,0.553-0.354,1.439-0.4,2.653l-0.04,1.07l10.936,0.436L119.546,391.341z M104.636,385.45l0.156-3.914
				c0.098-2.537,0.052-4.127-0.133-4.768c-0.191-0.641-0.538-1.149-1.053-1.528c-0.509-0.375-1.157-0.582-1.944-0.613
				c-0.88-0.034-1.603,0.174-2.165,0.623c-0.555,0.447-0.925,1.099-1.104,1.951c-0.075,0.426-0.156,1.714-0.243,3.857l-0.162,4.128
				L104.636,385.45z"/>
			<path fill="#27649B" d="M112.36,363.107l0.082-5.176c1.753-0.112,3.089-0.593,3.998-1.444c0.914-0.85,1.464-2.073,1.643-3.673
				c0.191-1.696-0.018-3.012-0.642-3.953c-0.614-0.943-1.406-1.466-2.367-1.573c-0.613-0.07-1.163,0.048-1.631,0.361
				c-0.475,0.313-0.926,0.9-1.348,1.765c-0.284,0.593-0.816,1.953-1.615,4.083c-1.018,2.742-2.1,4.621-3.251,5.645
				c-1.615,1.438-3.449,2.038-5.515,1.802c-1.325-0.148-2.522-0.665-3.593-1.549c-1.07-0.883-1.828-2.068-2.268-3.552
				c-0.445-1.483-0.556-3.228-0.324-5.23c0.371-3.271,1.366-5.649,2.986-7.14c1.62-1.49,3.633-2.141,6.034-1.953l-0.364,5.285
				c-1.366,0.076-2.384,0.449-3.049,1.123c-0.671,0.674-1.094,1.75-1.261,3.232c-0.174,1.528,0.006,2.761,0.533,3.697
				c0.341,0.602,0.85,0.943,1.521,1.018c0.62,0.071,1.175-0.13,1.672-0.602c0.637-0.602,1.394-2.146,2.292-4.635
				c0.896-2.493,1.735-4.313,2.516-5.467c0.787-1.154,1.776-2.01,2.979-2.578c1.198-0.564,2.621-0.754,4.265-0.57
				c1.493,0.171,2.846,0.744,4.056,1.722c1.208,0.977,2.042,2.259,2.504,3.847c0.463,1.589,0.562,3.516,0.307,5.777
				c-0.375,3.296-1.423,5.739-3.147,7.333C117.654,362.291,115.317,363.096,112.36,363.107z"/>
			<path fill="#27649B" d="M124.378,336.323l-25.857-4.357l0.879-5.219l25.858,4.357L124.378,336.323z"/>
			<path fill="#27649B" d="M100.892,318.042l2.164-9.431c0.486-2.127,1.019-3.712,1.603-4.753c0.781-1.397,1.863-2.502,3.234-3.313
				c1.372-0.81,2.939-1.307,4.698-1.493c1.765-0.182,3.841-0.003,6.237,0.546c2.1,0.484,3.854,1.16,5.259,2.031
				c1.713,1.068,3.003,2.326,3.883,3.773c0.671,1.096,1.07,2.462,1.209,4.096c0.104,1.221-0.069,2.784-0.503,4.69l-2.228,9.711
				L100.892,318.042z M106.401,313.874l16.93,3.879l0.88-3.854c0.329-1.441,0.485-2.5,0.468-3.176
				c-0.012-0.886-0.208-1.661-0.584-2.326c-0.37-0.668-1.094-1.308-2.158-1.918c-1.065-0.611-2.587-1.143-4.56-1.594
				c-1.973-0.455-3.529-0.628-4.669-0.521c-1.14,0.107-2.077,0.405-2.812,0.896c-0.734,0.492-1.318,1.195-1.753,2.112
				c-0.324,0.686-0.729,2.077-1.215,4.181L106.401,313.874z"/>
			<path fill="#27649B" d="M140.376,273.531l-1.759,5.482l-6.376,0.362l-3.2,9.981l5.011,3.88l-1.718,5.349l-21.842-17.734
				l1.707-5.332L140.376,273.531z M127.519,279.644l-10.368,0.469l8.181,6.344L127.519,279.644z"/>
			<path fill="#27649B" d="M118.019,258.756l3.779-8.91c0.85-2.007,1.654-3.474,2.406-4.397c1.019-1.241,2.274-2.141,3.768-2.696
				c1.493-0.561,3.125-0.776,4.889-0.651c1.765,0.128,3.779,0.668,6.041,1.629c1.984,0.841,3.593,1.813,4.826,2.916
				c1.499,1.351,2.557,2.814,3.165,4.395c0.468,1.195,0.625,2.606,0.479,4.241c-0.115,1.22-0.555,2.731-1.318,4.533l-3.889,9.17
				L118.019,258.756z M124.169,255.611l15.993,6.779l1.544-3.64c0.573-1.363,0.914-2.378,1.019-3.046
				c0.132-0.876,0.08-1.675-0.174-2.395c-0.249-0.72-0.845-1.476-1.788-2.263c-0.943-0.787-2.343-1.576-4.212-2.369
				c-1.869-0.79-3.368-1.232-4.507-1.325c-1.14-0.096-2.112,0.038-2.928,0.391c-0.811,0.356-1.505,0.949-2.089,1.776
				c-0.446,0.614-1.087,1.917-1.926,3.903L124.169,255.611z"/>
			<path fill="#27649B" d="M159.863,212.362l4.05-3.55c2.042,2.153,3.182,4.369,3.424,6.654c0.249,2.285-0.357,4.632-1.816,7.042
				c-1.8,2.979-4.292,4.813-7.492,5.505c-3.194,0.688-6.556-0.035-10.091-2.167c-3.732-2.256-6.052-4.972-6.956-8.149
				c-0.902-3.176-0.405-6.335,1.494-9.48c1.66-2.748,3.819-4.487,6.479-5.222c1.574-0.44,3.414-0.375,5.521,0.2l-1.638,5.132
				c-1.325-0.438-2.58-0.438-3.761-0.003c-1.181,0.437-2.135,1.255-2.864,2.462c-1.006,1.664-1.227,3.373-0.653,5.132
				c0.566,1.756,2.192,3.442,4.866,5.057c2.834,1.713,5.167,2.425,6.983,2.129c1.823-0.292,3.223-1.255,4.213-2.89
				c0.729-1.203,0.971-2.471,0.729-3.802C162.109,215.084,161.281,213.732,159.863,212.362z"/>
			<path fill="#27649B" d="M188.827,188.761l-3.495,4.574l-6.122-1.796l-6.364,8.326l3.419,5.337l-3.413,4.461l-14.633-24.035
				l3.402-4.45L188.827,188.761z M174.669,190.204l-9.923-3.037l5.579,8.723L174.669,190.204z"/>
			<path fill="#27649B" d="M194.422,182.975l-15.853-14.945l-5.335,5.662l-3.228-3.044l14.291-15.159l3.234,3.041l-5.329,5.647
				l15.849,14.948L194.422,182.975z"/>
			<path fill="#27649B" d="M198.189,160.403c-1.671-2.08-2.766-4.076-3.281-5.988c-0.375-1.415-0.491-2.858-0.353-4.334
				c0.14-1.473,0.527-2.791,1.158-3.963c0.839-1.562,2.094-3.011,3.754-4.351c3.01-2.422,6.169-3.428,9.478-3.015
				c3.311,0.413,6.301,2.282,8.98,5.606c2.655,3.298,3.835,6.599,3.541,9.906c-0.296,3.304-1.938,6.165-4.941,8.578
				c-3.039,2.447-6.197,3.466-9.484,3.055C203.755,165.486,200.804,163.655,198.189,160.403z M196.297,142.965l-1.429-5.714
				l4.387-3.536l-0.475,7.25L196.297,142.965z M202.326,156.845c1.863,2.315,3.808,3.637,5.839,3.969
				c2.024,0.336,3.865-0.159,5.507-1.484c1.644-1.322,2.517-3,2.621-5.034c0.1-2.034-0.803-4.232-2.707-6.602
				c-1.886-2.344-3.807-3.674-5.758-4.001c-1.954-0.324-3.784,0.197-5.479,1.565c-1.701,1.365-2.603,3.052-2.707,5.057
				C199.544,152.317,200.435,154.496,202.326,156.845z"/>
			<path fill="#27649B" d="M231.221,151.426l-12.891-22.585l4.593-2.624l10.704,18.747l11.434-6.527l2.194,3.836L231.221,151.426z"
				/>
			<path fill="#27649B" d="M252.421,140.208l-10.177-24.169l4.883-2.054l10.172,24.166L252.421,140.208z"/>
			<path fill="#27649B" d="M277.411,121.854l5.375,0.284c-0.041,2.967-0.775,5.354-2.193,7.16c-1.423,1.805-3.501,3.061-6.219,3.769
				c-3.374,0.874-6.441,0.443-9.207-1.296c-2.771-1.738-4.675-4.603-5.71-8.595c-1.093-4.227-0.855-7.791,0.719-10.692
				c1.572-2.905,4.137-4.817,7.689-5.742c3.107-0.805,5.866-0.544,8.279,0.79c1.434,0.784,2.708,2.115,3.813,3.998l-4.756,2.529
				c-0.643-1.236-1.54-2.115-2.691-2.63c-1.151-0.512-2.406-0.592-3.766-0.24c-1.881,0.489-3.236,1.562-4.057,3.217
				c-0.816,1.654-0.833,3.992-0.052,7.019c0.839,3.208,2.008,5.343,3.519,6.405c1.504,1.062,3.182,1.351,5.028,0.871
				c1.359-0.353,2.418-1.09,3.175-2.21C277.116,125.369,277.469,123.824,277.411,121.854z"/>
			<path fill="#27649B" d="M314.302,128.092l-5.756,0.24l-2.534-5.853l-10.473,0.438l-1.916,6.041l-5.606,0.234l9.107-26.624
				l5.589-0.235L314.302,128.092z M304.13,118.134l-4.016-9.57l-3.135,9.871L304.13,118.134z"/>
			<path fill="#27649B" d="M336.028,104.766l10.137,2.653c2.01,0.523,3.482,1,4.426,1.427c0.943,0.422,1.736,1.003,2.374,1.738
				c0.641,0.735,1.105,1.609,1.395,2.627c0.29,1.019,0.29,2.077,0,3.171c-0.309,1.189-0.913,2.196-1.811,3.023
				c-0.904,0.821-1.961,1.339-3.19,1.55c1.424,0.851,2.413,1.933,2.962,3.231c0.547,1.302,0.631,2.688,0.244,4.149
				c-0.299,1.157-0.861,2.207-1.685,3.156c-0.819,0.952-1.782,1.631-2.881,2.04c-1.1,0.407-2.348,0.509-3.75,0.303
				c-0.878-0.13-2.949-0.61-6.218-1.443l-8.641-2.257L336.028,104.766z M337.407,120.417l-1.772,6.781l4.738,1.241
				c1.847,0.483,3.034,0.737,3.555,0.763c0.797,0.061,1.509-0.115,2.123-0.526c0.618-0.411,1.047-1.067,1.285-1.967
				c0.194-0.758,0.185-1.455-0.049-2.083c-0.231-0.625-0.664-1.151-1.295-1.577c-0.637-0.425-2.117-0.943-4.448-1.55
				L337.407,120.417z M340.045,110.326l-1.535,5.867l3.355,0.88c1.997,0.52,3.246,0.815,3.743,0.888c0.911,0.122,1.675,0,2.31-0.37
				c0.631-0.371,1.054-0.963,1.268-1.785c0.208-0.784,0.156-1.478-0.143-2.08c-0.31-0.605-0.875-1.071-1.697-1.397
				c-0.498-0.191-1.948-0.6-4.354-1.229L340.045,110.326z"/>
			<path fill="#27649B" d="M360.948,125.714c1.187-2.393,2.54-4.227,4.056-5.497c1.128-0.932,2.39-1.646,3.785-2.141
				c1.395-0.495,2.754-0.701,4.084-0.614c1.772,0.104,3.609,0.625,5.525,1.574c3.46,1.71,5.707,4.154,6.725,7.331
				c1.012,3.176,0.579,6.677-1.313,10.504c-1.876,3.795-4.374,6.254-7.499,7.377c-3.125,1.125-6.409,0.83-9.86-0.874
				c-3.499-1.727-5.749-4.169-6.757-7.319C358.682,132.902,359.104,129.457,360.948,125.714z M365.924,127.973
				c-1.317,2.662-1.701,4.982-1.151,6.963c0.55,1.982,1.772,3.439,3.665,4.374c1.89,0.935,3.782,1.021,5.668,0.257
				c1.887-0.763,3.506-2.508,4.855-5.233c1.33-2.693,1.73-4.997,1.203-6.906c-0.526-1.91-1.766-3.347-3.72-4.313
				c-1.955-0.966-3.867-1.076-5.728-0.324C368.857,123.538,367.261,125.269,365.924,127.973z"/>
			<path fill="#27649B" d="M382.902,152.031l15.238-21.073l4.286,3.104l-12.646,17.494l10.67,7.713l-2.592,3.581L382.902,152.031z"
				/>
			<path fill="#27649B" d="M402.011,166.678l17.398-19.617l3.964,3.511l-17.404,19.618L402.011,166.678z"/>
			<path fill="#27649B" d="M415.852,179.839l12.783-24.735l3.915,4.197l-9.668,18.088l18.572-8.541l3.831,4.108l-25.58,11.017
				L415.852,179.839z"/>
			<path fill="#27649B" d="M428.843,194.679l20.624-16.183l3.271,4.163l-20.627,16.187L428.843,194.679z"/>
			<path fill="#27649B" d="M449.626,224.249l-3.184-4.802l3.707-5.196l-5.785-8.742l-6.162,1.481l-3.096-4.685l27.502-5.948
				l3.089,4.667L449.626,224.249z M452.901,210.395l6.12-8.381l-10.075,2.416L452.901,210.395z"/>
			<path fill="#27649B" d="M451.975,228.531l23.248-12.127l2.377,4.567l-10.559,17.616l15.524-8.101l2.279,4.36l-23.248,12.13
				l-2.458-4.71l10.27-17.283l-15.161,7.91L451.975,228.531z"/>
			<path fill="#27649B" d="M473.694,275.862l-2.163-5.337l4.657-4.357l-3.935-9.714l-6.329,0.229l-2.113-5.205l28.14-0.379
				l2.097,5.187L473.694,275.862z M479.648,262.934l7.662-7.004l-10.352,0.373L479.648,262.934z"/>
			<path fill="#27649B" d="M486.51,287.772l1.835,4.841c-1.584,0.749-2.65,1.689-3.185,2.818c-0.536,1.125-0.588,2.467-0.172,4.021
				c0.452,1.646,1.135,2.792,2.056,3.437c0.923,0.646,1.85,0.842,2.783,0.588c0.602-0.163,1.057-0.475,1.389-0.938
				c0.315-0.466,0.521-1.178,0.595-2.138c0.046-0.657,0.039-2.118-0.006-4.389c-0.065-2.925,0.25-5.075,0.937-6.445
				c0.972-1.933,2.458-3.168,4.462-3.712c1.291-0.35,2.598-0.31,3.918,0.116c1.317,0.425,2.459,1.246,3.418,2.464
				c0.959,1.216,1.701,2.795,2.228,4.742c0.862,3.177,0.816,5.757-0.143,7.738c-0.956,1.982-2.589,3.33-4.892,4.039l-1.606-5.048
				c1.242-0.57,2.046-1.293,2.423-2.167c0.377-0.873,0.364-2.028-0.022-3.468c-0.4-1.485-1.024-2.563-1.863-3.241
				c-0.537-0.434-1.136-0.561-1.789-0.384c-0.595,0.165-1.04,0.555-1.33,1.177c-0.364,0.79-0.511,2.508-0.416,5.152
				c0.088,2.647-0.022,4.649-0.332,6.011c-0.299,1.36-0.907,2.526-1.808,3.492c-0.911,0.969-2.159,1.669-3.763,2.103
				c-1.447,0.394-2.917,0.359-4.396-0.104c-1.486-0.462-2.738-1.345-3.75-2.653c-1.018-1.305-1.821-3.058-2.419-5.253
				c-0.868-3.203-0.791-5.858,0.221-7.977C481.893,290.481,483.772,288.873,486.51,287.772z"/>
			<path fill="#27649B" d="M489.688,340.321l-1.061-5.658l5.435-3.348l-1.929-10.301l-6.247-1.033l-1.037-5.52l27.651,5.218
				l1.031,5.503L489.688,340.321z M498.094,328.833l8.897-5.341L496.78,321.8L498.094,328.833z"/>
			<path fill="#27649B" d="M490.312,345.303l26.071-2.78l0.543,5.12l-16.27,12.531l17.411-1.857l0.521,4.891l-26.071,2.777
				l-0.565-5.278l15.879-12.326l-16.998,1.814L490.312,345.303z"/>
			<path fill="#27649B" d="M493.495,386.43l26.221-0.146l0.046,8.493c0.02,3.221-0.098,5.32-0.352,6.298
				c-0.39,1.509-1.238,2.771-2.546,3.791c-1.313,1.021-3.015,1.539-5.1,1.55c-1.612,0.009-2.966-0.278-4.064-0.856
				c-1.103-0.576-1.968-1.314-2.599-2.21s-1.047-1.812-1.255-2.736c-0.261-1.266-0.394-3.096-0.413-5.491l-0.017-3.452l-9.896,0.056
				L493.495,386.43z M515.313,391.601l-7.44,0.042l0.01,2.899c0.014,2.086,0.159,3.481,0.442,4.183
				c0.276,0.699,0.712,1.249,1.295,1.646c0.585,0.397,1.268,0.594,2.042,0.589c0.956-0.007,1.736-0.289,2.354-0.855
				c0.621-0.563,1.001-1.274,1.154-2.133c0.113-0.635,0.166-1.904,0.156-3.815L515.313,391.601z"/>
			<path fill="#27649B" d="M491.896,434.005l0.377-5.744l6.095-1.897l0.676-10.462l-5.805-2.547l0.364-5.603l25.506,11.891
				l-0.364,5.585L491.896,434.005z M502.884,424.95l9.941-2.975l-9.477-4.165L502.884,424.95z"/>
			<path fill="#27649B" d="M517.244,442.74l-1.479,10.373c-0.296,2.054-0.602,3.572-0.913,4.56
				c-0.319,0.983-0.807,1.837-1.461,2.555c-0.66,0.72-1.473,1.279-2.451,1.685c-0.985,0.401-2.033,0.52-3.155,0.36
				c-1.213-0.174-2.286-0.661-3.203-1.46c-0.92-0.802-1.558-1.797-1.905-2.992c-0.683,1.516-1.643,2.621-2.875,3.313
				c-1.232,0.689-2.598,0.929-4.098,0.716c-1.18-0.171-2.286-0.608-3.32-1.317c-1.04-0.709-1.824-1.585-2.354-2.629
				c-0.534-1.048-0.777-2.276-0.729-3.691c0.029-0.89,0.27-3.003,0.729-6.348l1.262-8.836L517.244,442.74z M501.856,445.888
				l-6.946-0.993l-0.692,4.852c-0.267,1.89-0.388,3.096-0.354,3.616c0.035,0.799,0.286,1.484,0.764,2.052
				c0.481,0.569,1.181,0.919,2.101,1.051c0.781,0.112,1.47,0.016,2.065-0.285c0.599-0.297,1.069-0.786,1.418-1.466
				c0.354-0.68,0.702-2.21,1.037-4.594L501.856,445.888z M512.178,447.362l-6-0.858l-0.494,3.434
				c-0.293,2.043-0.445,3.315-0.455,3.821c-0.022,0.911,0.186,1.664,0.624,2.247c0.439,0.589,1.083,0.941,1.922,1.061
				c0.797,0.115,1.486-0.013,2.049-0.382c0.566-0.371,0.966-0.987,1.197-1.846c0.133-0.511,0.374-2,0.729-4.469L512.178,447.362z"/>
			<path fill="#27649B" d="M486.858,467.463l25.401,5.587l-1.142,5.172l-21.083-4.641l-2.829,12.857l-4.313-0.951L486.858,467.463z"
				/>
			<path fill="#27649B" d="M494.143,494.023c2.556,0.783,4.582,1.822,6.081,3.118c1.1,0.965,2.007,2.093,2.719,3.391
				c0.712,1.299,1.129,2.606,1.262,3.935c0.179,1.763-0.042,3.665-0.67,5.706c-1.135,3.694-3.19,6.297-6.159,7.812
				c-2.973,1.512-6.497,1.642-10.582,0.387c-4.042-1.241-6.871-3.315-8.481-6.217c-1.609-2.902-1.85-6.191-0.718-9.874
				c1.147-3.729,3.193-6.342,6.14-7.843C486.683,492.936,490.155,492.797,494.143,494.023z M492.712,499.292
				c-2.833-0.874-5.19-0.88-7.057-0.019c-1.87,0.86-3.116,2.301-3.733,4.317c-0.618,2.02-0.4,3.897,0.66,5.636
				c1.054,1.741,3.037,3.059,5.941,3.951c2.871,0.883,5.209,0.908,7.008,0.084c1.798-0.824,3.021-2.279,3.662-4.365
				c0.644-2.088,0.438-3.987-0.596-5.706C497.557,501.476,495.593,500.175,492.712,499.292z"/>
		</g>
		<g>
			<path fill="#27649B" d="M211.885,659.921l13.37-22.552l6.816,4.04l-5.028,17.813l13.169-12.983l6.833,4.051l-13.377,22.551
				l-4.229-2.509l10.525-17.751l-15.003,15.099l-4.385-2.602l6.068-20.398l-10.53,17.751L211.885,659.921z"/>
			<path fill="#27649B" d="M263.588,674.151l4.317,3.222c-1.685,2.447-3.616,4.024-5.805,4.734c-2.187,0.713-4.605,0.608-7.26-0.316
				c-3.292-1.144-5.608-3.207-6.944-6.188c-1.337-2.984-1.324-6.423,0.029-10.32c1.429-4.122,3.611-6.954,6.526-8.496
				c2.922-1.543,6.122-1.707,9.588-0.504c3.031,1.054,5.177,2.803,6.451,5.252c0.757,1.452,1.076,3.265,0.949,5.44l-5.364-0.535
				c0.156-1.385-0.104-2.612-0.776-3.676c-0.67-1.068-1.665-1.833-2.997-2.295c-1.841-0.637-3.558-0.496-5.156,0.425
				c-1.602,0.92-2.915,2.855-3.939,5.807c-1.088,3.133-1.303,5.558-0.636,7.279c0.665,1.719,1.897,2.893,3.702,3.521
				c1.325,0.46,2.616,0.434,3.872-0.075C261.39,676.913,262.541,675.821,263.588,674.151z"/>
			<path fill="#27649B" d="M276.485,687.68l2.945-26.055l7.875,0.89l2.721,18.307l6.683-17.245l7.886,0.892l-2.939,26.053
				l-4.89-0.553l2.314-20.507l-7.486,19.927l-5.063-0.573l-2.841-21.094l-2.313,20.512L276.485,687.68z"/>
			<path fill="#27649B" d="M313.938,690.139l-2.607-25.878l5.268-0.528l2.166,21.479l13.093-1.319l0.445,4.396L313.938,690.139z"/>
			<path fill="#27649B" d="M339.784,687l4.699-15.664l-11.353-9.711l5.929-1.761l7.44,6.579l2.543-9.542l5.883-1.748l-4.195,14.532
				l12.429,10.377l-6.123,1.817l-8.156-7.039l-3.005,10.354L339.784,687z"/>
			<path fill="#27649B" d="M377.469,673.405l-20.234-19.131l5.122-2.601l14.705,14.298l-3.066-20.211l5.005-2.547l3.509,27.632
				L377.469,673.405z"/>
			<path fill="#27649B" d="M397.399,662.063l-14.627-21.761l4.394-2.957l14.627,21.762L397.399,662.063z"/>
		</g>
		<g>
			<g>
				<polygon fill="#FACA32" points="188.607,351.708 191.21,348.402 193.832,351.693 206.62,367.773 218.244,324.766 
					175.538,324.766 172.609,372.055 				"/>
				<path fill="#27649B" d="M168.623,382.508l22.606-28.74l16.884,21.235l14.481-53.567h-50.192L168.623,382.508z M218.244,324.766
					l-11.624,43.008l-12.789-16.08l-2.621-3.292l-2.603,3.306l-15.998,20.347l2.928-47.289H218.244z"/>
			</g>
			<g>
				<polygon fill="#FACA32" points="424.599,351.708 440.599,372.055 437.676,324.766 394.964,324.766 406.593,367.773 
					419.376,351.693 421.997,348.402 				"/>
				<path fill="#27649B" d="M440.807,321.436h-50.188l14.478,53.567l16.888-21.235l22.602,28.74L440.807,321.436z M406.593,367.773
					l-11.629-43.008h42.712l2.923,47.289l-16-20.347l-2.602-3.306l-2.621,3.292L406.593,367.773z"/>
			</g>
			<g>
				<path fill="#FACA32" d="M456.29,335.233c-7.821-43.337-24.104-82.668-47.219-113.955
					c-29.024-39.255-65.417-60.871-102.464-60.871c-37.053,0-73.447,21.616-102.47,60.871
					c-23.108,31.287-39.396,70.618-47.219,113.955h52.531c0.59-34.878,10.507-67.581,28.073-92.406
					c18.371-25.964,42.903-40.264,69.085-40.264c26.182,0,50.715,14.3,69.085,40.264c17.561,24.825,27.477,57.527,28.071,92.406
					H456.29z"/>
				<path fill="#27649B" d="M411.751,219.299c-29.672-40.129-67.004-62.223-105.144-62.223c-38.147,0-75.479,22.094-105.149,62.223
					c-24.323,32.933-40.906,74.057-48.503,119.263h59.792c0-73.276,42.03-132.669,93.86-132.669
					c51.831,0,93.853,59.393,93.853,132.669h59.794C452.664,293.356,436.078,252.232,411.751,219.299z M306.607,202.563
					c-26.182,0-50.714,14.3-69.085,40.264c-17.565,24.825-27.482,57.527-28.073,92.406h-52.531
					c7.823-43.337,24.111-82.668,47.219-113.955c29.022-39.255,65.417-60.871,102.47-60.871c37.047,0,73.44,21.616,102.464,60.871
					c23.114,31.287,39.397,70.618,47.219,113.955h-52.526c-0.595-34.878-10.511-67.581-28.071-92.406
					C357.322,216.863,332.789,202.563,306.607,202.563z"/>
			</g>
		</g>
		<g>
			<path fill="#27649B" d="M203.368,301.813l-22.547,3.269l0.93-4.603l16.642-2.181l-14.53-8.291l0.909-4.505l19.51,11.777
				L203.368,301.813z"/>
			<path fill="#27649B" d="M206.788,286.439l-20.396-6.66l4.941-15.122l3.449,1.128l-3.593,11.002l4.525,1.476l3.338-10.235
				l3.442,1.12l-3.349,10.241l5.554,1.811l3.72-11.393l3.438,1.123L206.788,286.439z"/>
			<path fill="#27649B" d="M213.631,266.408l-19.336-9.29l3.946-8.216c0.989-2.066,1.886-3.486,2.685-4.255
				c0.798-0.77,1.777-1.224,2.934-1.36c1.158-0.136,2.309,0.07,3.455,0.62c1.452,0.697,2.44,1.701,2.979,3.006
				c0.538,1.307,0.52,2.87-0.052,4.687c0.902-0.608,1.777-1.047,2.627-1.313c0.855-0.266,2.257-0.506,4.207-0.715l4.906-0.549
				l-2.239,4.669l-5.565,0.802c-1.985,0.28-3.264,0.512-3.831,0.694c-0.566,0.18-1.024,0.446-1.366,0.787
				c-0.346,0.345-0.733,0.967-1.163,1.86l-0.382,0.792l8.072,3.876L213.631,266.408z M204.345,257.143l1.389-2.888
				c0.902-1.872,1.384-3.08,1.452-3.622c0.063-0.544-0.034-1.038-0.294-1.487c-0.26-0.451-0.676-0.815-1.262-1.093
				c-0.647-0.315-1.262-0.394-1.823-0.237c-0.572,0.156-1.059,0.523-1.47,1.108c-0.197,0.295-0.67,1.232-1.434,2.818l-1.463,3.046
				L204.345,257.143z"/>
			<path fill="#27649B" d="M224.047,246.195l-18.226-11.317l2.28-3.68l18.226,11.317L224.047,246.195z"/>
			<path fill="#27649B" d="M232.182,234.105l-14.066-10.947l-3.91,5.022l-2.865-2.23l10.473-13.453l2.863,2.23l-3.899,5.014
				l14.066,10.947L232.182,234.105z"/>
			<path fill="#27649B" d="M253.868,211.215l-3.431,3.229l-4.704-2.266l-6.249,5.873l2.047,4.762l-3.345,3.148l-8.609-21.353
				l3.333-3.136L253.868,211.215z M242.244,210.495l-7.608-3.772l3.343,7.782L242.244,210.495z"/>
			<path fill="#27649B" d="M251.953,204.113l3.396-2.528c0.948,1.082,1.927,1.704,2.934,1.872c1.006,0.171,2.071-0.087,3.2-0.767
				c1.192-0.724,1.943-1.516,2.244-2.387c0.301-0.871,0.249-1.646-0.161-2.323c-0.26-0.434-0.613-0.727-1.054-0.877
				c-0.439-0.153-1.041-0.15-1.811,0.009c-0.525,0.11-1.678,0.44-3.454,0.99c-2.286,0.706-4.044,0.94-5.283,0.706
				c-1.735-0.329-3.043-1.224-3.922-2.676c-0.563-0.937-0.828-1.973-0.787-3.107c0.039-1.134,0.427-2.213,1.167-3.243
				c0.746-1.027,1.823-1.967,3.235-2.818c2.303-1.392,4.345-1.933,6.12-1.626c1.777,0.307,3.2,1.29,4.276,2.942l-3.609,2.401
				c-0.73-0.851-1.481-1.325-2.252-1.423c-0.769-0.099-1.678,0.167-2.725,0.798c-1.077,0.651-1.787,1.377-2.128,2.19
				c-0.22,0.521-0.192,1.018,0.097,1.495c0.26,0.434,0.672,0.694,1.228,0.781c0.699,0.113,2.087-0.165,4.147-0.824
				c2.061-0.665,3.664-1.03,4.803-1.093c1.14-0.067,2.187,0.148,3.153,0.642s1.8,1.322,2.499,2.482
				c0.638,1.053,0.938,2.216,0.903,3.486c-0.028,1.275-0.446,2.456-1.244,3.547c-0.798,1.09-1.995,2.121-3.593,3.081
				c-2.319,1.403-4.431,1.941-6.317,1.618C255.117,207.14,253.434,206.023,251.953,204.113z"/>
			<path fill="#27649B" d="M283.764,196.366l-5.48-20.739l4.19-1.108l5.479,20.74L283.764,196.366z"/>
			<path fill="#27649B" d="M292.807,193.84l-1.371-21.411l4.207-0.269l9.673,13.736l-0.907-14.294l4.013-0.258l1.366,21.409
				l-4.333,0.277l-9.523-13.409l0.891,13.962L292.807,193.84z"/>
			<path fill="#27649B" d="M339.865,191.5l3.559,2.598c-1.354,2.014-2.924,3.324-4.699,3.926c-1.782,0.602-3.767,0.538-5.948-0.193
				c-2.702-0.906-4.611-2.572-5.733-4.999c-1.122-2.428-1.145-5.242-0.074-8.442c1.135-3.388,2.888-5.723,5.265-7.013
				c2.377-1.287,4.988-1.452,7.841-0.5c2.487,0.835,4.257,2.248,5.323,4.238c0.631,1.181,0.907,2.662,0.826,4.444l-4.391-0.391
				c0.107-1.134-0.11-2.135-0.673-3c-0.557-0.868-1.382-1.484-2.475-1.849c-1.506-0.505-2.911-0.373-4.215,0.394
				c-1.301,0.767-2.354,2.363-3.171,4.788c-0.861,2.573-1.011,4.56-0.448,5.96c0.559,1.403,1.577,2.349,3.06,2.846
				c1.093,0.365,2.146,0.333,3.164-0.099C338.094,193.777,339.026,192.875,339.865,191.5z"/>
			<path fill="#27649B" d="M361.465,212.821l-3.957-2.557l1.063-5.109l-7.203-4.651l-4.134,3.136l-3.856-2.493l18.653-13.494
				l3.847,2.482L361.465,212.821z M359.364,201.362l1.834-8.291l-6.754,5.118L359.364,201.362z"/>
			<path fill="#27649B" d="M363.696,215.011l15.199-15.142l6.436,6.458c1.62,1.626,2.654,2.942,3.119,3.949
				c0.455,1.01,0.56,2.08,0.306,3.22c-0.26,1.136-0.839,2.152-1.736,3.046c-1.139,1.136-2.413,1.741-3.824,1.811
				c-1.412,0.07-2.882-0.466-4.403-1.606c0.273,1.047,0.394,2.02,0.364,2.914c-0.033,0.891-0.276,2.293-0.729,4.206l-1.115,4.809
				l-3.659-3.671l1.1-5.511c0.394-1.967,0.602-3.246,0.621-3.845c0.022-0.596-0.075-1.114-0.283-1.554
				c-0.215-0.437-0.666-1.006-1.372-1.712l-0.618-0.623l-6.341,6.322L363.696,215.011z M375.53,209.342l2.257,2.271
				c1.47,1.47,2.445,2.329,2.939,2.569c0.484,0.246,0.988,0.318,1.496,0.223c0.511-0.096,0.995-0.371,1.447-0.828
				c0.517-0.507,0.793-1.056,0.832-1.64c0.043-0.588-0.143-1.172-0.553-1.75c-0.215-0.284-0.939-1.048-2.182-2.294l-2.384-2.393
				L375.53,209.342z"/>
			<path fill="#27649B" d="M379.104,231.608l17.034-13.035l2.634,3.439l-17.04,13.036L379.104,231.608z"/>
			<path fill="#27649B" d="M387.484,243.461l15.209-9.29l-3.313-5.437l3.096-1.888l8.888,14.548l-3.096,1.892l-3.311-5.421
				l-15.216,9.292L387.484,243.461z"/>
			<path fill="#27649B" d="M401.839,271.81l-1.938-4.296l3.668-3.712l-3.525-7.817l-5.17,0.394l-1.893-4.188l22.994-1.212
				l1.887,4.174L401.839,271.81z M406.294,261.048l6.039-5.971l-8.445,0.636L406.294,261.048z"/>
			<path fill="#27649B" d="M403.578,277.72l16.973-5.459l-1.951-6.058l3.456-1.114l5.217,16.23l-3.447,1.11l-1.951-6.044
				l-16.962,5.457L403.578,277.72z"/>
			<path fill="#27649B" d="M407.822,291.809l21.023-4.25l3.155,15.593l-3.558,0.718l-2.293-11.347l-4.663,0.943l2.136,10.557
				l-3.541,0.718l-2.137-10.56l-5.72,1.158l2.37,11.749l-3.541,0.717L407.822,291.809z"/>
		</g>
	</g>
	<g>
		<g>
			<path fill="#27649B" d="M282.277,262.448l-1.834,0.79l15.621,36.2c0.608-0.271,1.221-0.521,1.858-0.75L282.277,262.448z"/>
			<path fill="#27649B" d="M272.799,267.36l-1.671,1.099l21.57,32.772c0.555-0.358,1.138-0.683,1.73-0.998L272.799,267.36z"/>
			<path fill="#27649B" d="M303.054,257.874l-1.997,0.115l2.304,39.382c0.665-0.086,1.33-0.15,1.99-0.185L303.054,257.874z"/>
			<path fill="#27649B" d="M264.316,273.849l-1.452,1.371l26.76,28.354c0.504-0.44,1.013-0.868,1.551-1.271L264.316,273.849z"/>
			<path fill="#27649B" d="M292.466,259.251l-1.943,0.46l9.106,38.404c0.648-0.182,1.302-0.327,1.951-0.457L292.466,259.251z"/>
			<path fill="#27649B" d="M257.091,281.709l-1.192,1.602l31.001,23.072c0.428-0.516,0.88-1.01,1.348-1.493L257.091,281.709z"/>
			<path fill="#27649B" d="M281.473,319.486l-37.042,2.17l0.116,1.994l36.845-2.159
				C281.386,320.819,281.416,320.151,281.473,319.486z"/>
			<path fill="#27649B" d="M247.237,300.566l-0.572,1.916l36.203,10.828c0.237-0.627,0.491-1.247,0.78-1.854L247.237,300.566z"/>
			<path fill="#27649B" d="M251.34,290.707l-0.898,1.785l34.156,17.145c0.341-0.579,0.71-1.134,1.099-1.684L251.34,290.707z"/>
			<path fill="#27649B" d="M357.345,286.239l-1.099-1.666l-31.287,20.586c0.445,0.498,0.864,1.018,1.268,1.556L357.345,286.239z"/>
			<path fill="#27649B" d="M244.911,310.986l-0.231,1.985l37.089,4.325c0.12-0.66,0.265-1.311,0.445-1.958L244.911,310.986z"/>
			<path fill="#27649B" d="M350.857,277.757l-1.369-1.452l-27.554,26.008c0.533,0.411,1.03,0.851,1.521,1.308L350.857,277.757z"/>
			<path fill="#27649B" d="M313.723,258.354l-1.99-0.231l-4.547,39.018c0.671,0.012,1.338,0.046,1.998,0.11L313.723,258.354z"/>
			<path fill="#27649B" d="M366.834,316.495l-0.117-1.997l-36.282,2.127c0.104,0.659,0.189,1.324,0.237,1.984L366.834,316.495z"/>
			<path fill="#27649B" d="M362.256,295.717l-0.787-1.834l-34.003,14.678c0.342,0.57,0.663,1.158,0.959,1.762L362.256,295.717z"/>
			<path fill="#27649B" d="M324.139,260.681l-1.908-0.57l-11.19,37.409c0.657,0.116,1.308,0.26,1.954,0.428L324.139,260.681z"/>
			<path fill="#27649B" d="M342.994,270.534l-1.604-1.195l-22.877,30.747c0.598,0.319,1.177,0.648,1.736,1.016L342.994,270.534z"/>
			<path fill="#27649B" d="M333.999,264.783l-1.782-0.897L314.842,298.5c0.634,0.217,1.259,0.455,1.873,0.72L333.999,264.783z"/>
			<path fill="#27649B" d="M359.924,347.44l0.897-1.784l-32.094-16.109c-0.273,0.608-0.572,1.204-0.891,1.788L359.924,347.44z"/>
			<path fill="#27649B" d="M322.305,338.189l24.641,26.11l1.453-1.371l-24.643-26.108
				C323.294,337.295,322.809,337.749,322.305,338.189z"/>
			<path fill="#27649B" d="M328.988,375.704l1.834-0.792l-14.234-32.982c-0.595,0.287-1.203,0.562-1.827,0.802L328.988,375.704z"/>
			<path fill="#27649B" d="M308.211,380.274l1.993-0.116l-2.094-35.828c-0.663,0.072-1.33,0.11-1.995,0.127L308.211,380.274z"/>
			<path fill="#27649B" d="M318.8,378.897l1.941-0.46l-8.283-34.934c-0.65,0.185-1.298,0.33-1.944,0.46L318.8,378.897z"/>
			<path fill="#27649B" d="M338.464,370.788l1.669-1.099l-19.736-30.001c-0.547,0.384-1.1,0.752-1.675,1.096L338.464,370.788z"/>
			<path fill="#27649B" d="M364.028,337.582l0.572-1.916l-34.468-10.311c-0.149,0.651-0.342,1.294-0.55,1.927L364.028,337.582z"/>
			<path fill="#27649B" d="M330.549,322.987l35.804,4.174l0.231-1.982l-35.866-4.186
				C330.695,321.662,330.63,322.327,330.549,322.987z"/>
			<path fill="#27649B" d="M354.175,356.438l1.189-1.602l-28.796-21.43c-0.371,0.55-0.774,1.082-1.19,1.603L354.175,356.438z"/>
			<path fill="#27649B" d="M329.938,314.333l35.518-8.427l-0.461-1.944l-35.678,8.465c0.186,0.51,0.384,1.015,0.54,1.545
				C329.886,314.093,329.908,314.215,329.938,314.333z"/>
			<path fill="#27649B" d="M253.92,351.911l1.099,1.667l30.058-19.784c-0.364-0.553-0.717-1.117-1.029-1.709L253.92,351.911z"/>
			<path fill="#27649B" d="M260.406,360.392l1.371,1.45l26.078-24.61c-0.468-0.478-0.92-0.963-1.341-1.481L260.406,360.392z"/>
			<path fill="#27649B" d="M268.27,367.614l1.603,1.195l21.367-28.72c-0.545-0.381-1.083-0.778-1.597-1.204L268.27,367.614z"/>
			<path fill="#27649B" d="M249.001,342.43l0.793,1.834l33.233-14.346c-0.249-0.611-0.457-1.25-0.653-1.892L249.001,342.43z"/>
			<path fill="#27649B" d="M245.808,332.241l0.463,1.943l35.538-8.43c-0.133-0.663-0.226-1.325-0.296-1.987L245.808,332.241z"/>
			<path fill="#27649B" d="M277.266,373.365l1.782,0.897l16.057-31.992c-0.608-0.275-1.203-0.567-1.789-0.888L277.266,373.365z"/>
			<path fill="#27649B" d="M297.547,379.793l1.984,0.232l4.154-35.616c-0.671-0.043-1.33-0.116-1.99-0.214L297.547,379.793z"/>
			<path fill="#27649B" d="M287.126,377.468l1.916,0.572l10.263-34.316c-0.654-0.163-1.29-0.347-1.92-0.556L287.126,377.468z"/>
		</g>
		<g id="XMLID_3_">
			<g>
				<g id="XMLID_4_">
					<g>
						<path fill="#FFFFFF" d="M436.407,462.971c0.233,0.948,0.566,1.814,0.399,3.196c-1.615,1.149-4.778,0.949-5.994-0.416
							C431.063,463.27,433.677,461.738,436.407,462.971z"/>
						<path fill="#FFFFFF" d="M432.411,447.785c-1.365-7.26-5.444-13.087-4.396-20.796c1.049-7.843,7.992-14.636,9.574-21.579
							c0.532,0.15,0.632,0.716,1.215,0.816c5.479,9.457,1.415,23.609-2.397,33.167C435.142,442.523,434.792,446.087,432.411,447.785
							z"/>
						<rect x="412.031" y="471.362" fill="#FFFFFF" width="2.797" height="0.782"/>
						<path fill="#FFFFFF" d="M379.663,475.342c0.333-0.85,0.982-1.399,2.397-1.199
							C382.145,475.491,380.563,476.224,379.663,475.342z"/>
						<path fill="#FFFFFF" d="M367.242,501.648c1.065-1.848,3.38-2.464,5.229-3.513c0.232,0.882-0.167,1.564-0.866,2.114
							c-1.232,0.999-3.413,1.599-4.729,2.265C366.976,502.198,367.093,501.915,367.242,501.648z"/>
						<path fill="#FFFFFF" d="M370.073,477.34c-1.1,3.146-6.344,5.395-9.208,3.196c1.698-1.565,4.612-3.28,7.492-3.363
							C368.94,477.156,369.507,477.206,370.073,477.34z"/>
						<path fill="#FFFFFF" d="M365.277,503.713c0.316,1.665-1.548,2.349-2.397,1.599v-1.198
							C363.813,504.13,364.045,503.431,365.277,503.713z"/>
						<path fill="#FFFFFF" d="M349.693,477.34c-2.531-2.132-4.629-4.695-4.396-9.574c0.517-0.15,0.616-0.716,1.199-0.816
							c4.929,1.1,11.821,3.613,13.986,8.792c-4.013-0.383-5.645-3.147-10.789-2.397C349.21,474.925,350.908,476.357,349.693,477.34z
							"/>
						<path fill="#FFFFFF" d="M337.705,584.85c-0.134-2.547,1.715-1.814,3.579-1.599c3.896-3.596,15.852-6.027,17.749,0.883
							c0.134,0.449,0.217,0.949,0.25,1.499c-3.479,1.731-7.093,3.313-10.789,4.795c-0.883-2.231-0.883-5.161-3.597-6.394
							C341.983,584.916,340.186,585.666,337.705,584.85z"/>
						<path fill="#FFFFFF" d="M350.093,574.46c-1.665,4.729-9.841,6.743-14.786,5.578c-0.898-4.995,4.313-3.147,7.193-3.58
							C345.613,575.976,347.895,572.212,350.093,574.46z"/>
						<path fill="#FFFFFF" d="M336.905,466.167c4.163,2.664,9.808,7.51,7.576,13.97c-3.347,1.115-4.196-2.381-5.179-5.195
							C338.154,471.695,336.156,468.947,336.905,466.167z"/>
						<path fill="#FFFFFF" d="M334.108,573.645c0.066-6.644,7.126,0.416,0.799,0.815
							C334.725,574.094,334.541,573.744,334.108,573.645z"/>
						<path fill="#FFFFFF" d="M330.512,575.243c-0.549-0.5-0.549-1.882,0-2.382c1.415-0.1,2.081,0.566,1.998,1.998
							C332.044,575.192,331.428,575.376,330.512,575.243z"/>
						<path fill="#27649B" d="M436.807,466.167c0.167-1.382-0.166-2.248-0.399-3.196c-2.73-1.232-5.345,0.299-5.595,2.78
							C432.028,467.116,435.191,467.316,436.807,466.167z M414.828,472.145v-0.782h-2.797v0.782H414.828z M428.016,426.989
							c-1.049,7.709,3.03,13.536,4.396,20.796c2.381-1.698,2.73-5.262,3.996-8.392c3.813-9.558,7.876-23.71,2.397-33.167
							c-0.583-0.101-0.683-0.666-1.215-0.816C436.008,412.354,429.064,419.146,428.016,426.989z M382.061,474.143
							c-1.415-0.2-2.064,0.35-2.397,1.199C380.563,476.224,382.145,475.491,382.061,474.143z M332.11,492.125
							c-0.483-1.082-2.131-1.632-3.763-1.632v-1.065c0.749,0,1.481-0.033,2.164-0.084c4.979-0.433,10.623-2.447,15.585-3.612
							c5.494-1.282,11.705-1.349,14.386-5.195h0.383c2.864,2.198,8.108-0.05,9.208-3.196c-0.566-0.134-1.133-0.184-1.716-0.167
							l-0.066-2.215c4.729,0,10.523-3.896,14.969-4.812c12.987-2.631,27.506-0.499,42.358-1.998
							c-0.233-3.347,4.679-6.677,5.194-9.19c0.6-2.997-2.197-8.242-3.596-12.771c-2.182-6.977-5.195-17.666-2.398-25.99
							c0.833-2.498,2.432-4.813,3.996-7.992c3.747-7.593,7.443-11.339,7.992-21.979c4.563,10.956,13.786,26.49,7.992,41.559
							c-1.349,3.48-4.146,6.66-5.595,10.39c-1.581,4.063-3.763,9.425-3.196,12.788c0.749,4.646,6.543,6.909,5.595,11.987
							c3.979-1.448,13.736-3.596,11.588,3.597c-3.347,2.231-9.391,0.999-13.986,1.199c-28.971,1.282-42.874,11.289-59.142,25.175
							c-2.23,1.898-4.479,3.746-6.793,5.512l-1.665-2.182c0.699-0.55,1.099-1.232,0.866-2.114c-1.849,1.049-4.163,1.665-5.229,3.513
							l-2.147-0.849c3.413-4.329,10.073-5.411,12.554-10.673c1.682,0.316,2.248-2.531,3.597-1.199
							c-0.167,2.081-2.031,2.498-2.78,4.013c4.462,0.033,5.494-3.529,5.594-6.793c0.633,0.683,1.665,0.982,3.197,0.782
							c0.1-2.947,3.513-2.598,5.194-3.979c0.051-1.182-1.165-2.83,0.4-3.196c1.248-0.2,1.781,0.333,1.581,1.599
							c3.797-1.815,6.478-4.729,10.807-6.011c-0.05-1.149,0.216-2.614-0.399-3.197c-4.246-0.35-8.726,2.164-11.189,0
							c-0.649,0.699-0.2,2.48-1.199,2.797c-0.932,0.134-1.548-0.05-1.997-0.383c-1.849,1.998-2.731,4.995-6.395,5.195
							c-0.716-0.366-0.732-1.415-1.198-1.998c-2.215,0.716-4.479,1.382-5.595,3.18c-2.098-1.731-2.947,0.916-6.011,0.417
							c-0.749,0.965-1.481,1.964-1.182,3.979c-1.249,0.25-3.098,1.965-3.597,1.599c-0.982-0.966,0.283-1.731,0-3.196
							c-3.83-1.749-5.895,1.515-6.794,4.013c-1.332-1.1-3.779-1.032-5.993-1.199c-1.149,0.982-1.383,2.881-2.814,3.58
							c-2.48,0.1-3.23-1.549-4.778-2.381c-2.182,0.283,0.017,2.764-1.615,3.18c-1.832,0.117-1.798-1.648-2.78-2.397
							c-1.932-0.2-0.683,2.797-2.398,2.813c-0.366-0.716-0.749-1.398-1.998-1.215c-0.166,0.766-0.149,1.731-1.198,1.599
							c-1.016,0.083-0.982-0.883-1.599-1.199C333.093,490.46,333.192,491.892,332.11,492.125z"/>
						<path fill="#FFFFFF" d="M322.919,454.578c2.165,0.067,2.365,1.965,1.998,3.58C322.836,458.392,323.02,456.327,322.919,454.578
							z"/>
						<path fill="#FFFFFF" d="M317.325,558.858c3.347-3.629,5.645-1.231,6.826,2.365c0.8,2.497,1.065,5.561,0.766,7.625
							c-0.982,0.899-2.863,0.883-4.795,0.816c-0.749-1.199-1.282-2.631-1.665-4.18C317.941,563.421,317.642,561.123,317.325,558.858
							z"/>
						<path fill="#FFFFFF" d="M322.52,481.353c-4.096-1.166-4.279-16.401-1.198-17.2c5.028-1.282,6.094,10.54,6.793,15.202
							C325.967,481.103,324.518,481.918,322.52,481.353z"/>
						<path fill="#FFFFFF" d="M322.12,572.861c1.965,5.611-7.726,7.543-11.589,4.796
							C310.065,572.112,318.157,571.363,322.12,572.861z"/>
						<path fill="#FFFFFF" d="M319.323,458.958c-1.282-0.55-1.615-3.181-0.4-3.996C320.955,454.762,320.172,458.508,319.323,458.958
							z"/>
						<path fill="#FFFFFF" d="M317.325,551.666c-4.113-1.731-1.433-10.257-1.599-13.97h1.198
							C318.707,540.927,320.056,548.452,317.325,551.666z"/>
						<path fill="#27649B" d="M315.261,329.169c28.654,2.797,43.989,19.664,63.204,31.885c3.729-13.703,7.992-26.89,11.188-41.159
							c-20.879,3.164-52.016,6.543-67.966-3.347l0.832-1.449c5.861,3.03,19.764,4.545,23.96,4.545
							c4.213,0,19.497,0.766,46.854-3.846c-4.528,16.118-13.67,48.869-13.67,48.869l-13.187,2.78
							c-5.694-6.127-18.448-18.548-18.448-18.548c-4.08-4.162-13.204-10.772-17.732-12.438c-4.014-1.465-12.738-3.813-13.737-3.763
							c-0.1,0.2-0.216,0.5-0.35,0.866l-2.264-0.816C314.378,331.55,314.811,330.351,315.261,329.169z"/>
						<path fill="#FFFFFF" d="M313.745,567.15c0.116-1.082,0.616-2.197,1.183-2.681c0.898,0.101,1.314,0.683,1.498,1.516
							c0.217,1.032,0.083,2.414,0.1,3.68C314.211,570.214,313.578,568.716,313.745,567.15z"/>
						<path fill="#FFFFFF" d="M312.93,479.754c-3.863-0.366-2.681-12.904,1.198-14.402
							C315.526,467.799,317.075,480.12,312.93,479.754z"/>
						<path fill="#27649B" d="M334.907,574.46c6.327-0.399-0.732-7.459-0.799-0.815C334.541,573.744,334.725,574.094,334.907,574.46
							z M342.5,576.458c-2.881,0.433-8.092-1.415-7.193,3.58c4.945,1.165,13.121-0.85,14.786-5.578
							C347.895,572.212,345.613,575.976,342.5,576.458z M332.51,574.859c0.083-1.432-0.583-2.098-1.998-1.998
							c-0.549,0.5-0.549,1.882,0,2.382C331.428,575.376,332.044,575.192,332.51,574.859z M322.12,572.861
							c-3.963-1.498-12.055-0.749-11.589,4.796C314.395,580.404,324.085,578.473,322.12,572.861z M304.138,579.655
							c1.349-3.63-0.233-7.477-2.963-7.477l3.363-2.514c0.932,0.383,1.965,0.699,3.197,0.782c0.815-0.699,1.365-2.081,1.481-3.513
							l4.529,0.216c-0.167,1.565,0.466,3.063,2.78,2.515c-0.017-1.266,0.117-2.647-0.1-3.68l2.031-0.5
							c0.383,1.549,0.916,2.98,1.665,4.18c1.932,0.066,3.813,0.083,4.795-0.816c0.3-2.064,0.034-5.128-0.766-7.625l2.081-0.25
							c0.816,1.981,2.364,3.413,3.88,5.494c4.745,0.434,8.625,1.748,11.172,4.379c4.929,0.233,8.459-0.716,11.206,1.199
							c1.715,1.216,1.565,3.547,2.797,5.194c2.048,2.748,6.494,3.464,6.394,6.794l-2.647,0.1c-1.897-6.91-13.853-4.479-17.749-0.883
							c-1.864-0.216-3.713-0.948-3.579,1.599c2.48,0.816,4.278,0.066,7.192-0.815c2.714,1.232,2.714,4.162,3.597,6.394l0.616,2.331
							c-4.962,1.315-10.24,2.281-14.603,3.28c-5.928,1.349-11.955,1.481-17.849,1.981l-0.134-1.582
							c3.23-1.315,0.417-5.645,0.399-8.392c1.932-1.382,4.729,0.033,6.794,0.782c0.333,2.331,0.233,5.095,2.397,5.611
							c1.698-2.215-2.48-5.361,0.399-6.394c2.647,0.532,1.865,4.528,3.996,5.578c2.114-1.549-0.749-4.047-1.198-5.578
							c0.965-1.715,3.546-1.781,3.196-4.796c-3.696-1.682-6.16,0.583-10.39,1.199c-6.294,0.899-13.587-0.217-20.063-0.25
							l0.083-4.079C302.772,580.121,303.438,579.972,304.138,579.655z"/>
						<path fill="#FFFFFF" d="M312.93,456.177c-1.416-0.35-1.315-2.631-0.4-3.196C313.911,453.13,314.128,455.611,312.93,456.177z"
							/>
						<path fill="#FFFFFF" d="M298.543,518.499c-0.75-4.729-2.481-7.893-1.599-13.188c2.98-0.732,5.029-2.414,7.593-3.596v-3.197
							c1.981-1.199,3.929-2.447,4.795-4.795c2.147,0.782,1.398,4.462,3.597,5.194c3.246-0.666,0.466-5.295,4.795-5.194
							c-0.05,1.248,0.482,1.914,0.799,2.813c2.581-0.716-0.416-2.98,0.8-4.412c3.13-0.467,1.598,3.729,3.996,4.013
							c0.849-0.483,2.164-0.5,2.397-1.599c0.25-1.465-0.866-1.549-0.8-2.813c0.633-0.833,2.015-1.232,3.431-1.232
							c1.632,0,3.279,0.55,3.763,1.632c1.082-0.233,0.982-1.665,2.397-1.599c0.616,0.316,0.583,1.282,1.599,1.199
							c1.049,0.133,1.032-0.833,1.198-1.599c1.249-0.184,1.632,0.499,1.998,1.215c1.716-0.017,0.467-3.014,2.398-2.813
							c0.982,0.749,0.948,2.515,2.78,2.397c1.632-0.416-0.566-2.896,1.615-3.18c1.548,0.832,2.298,2.48,4.778,2.381
							c1.432-0.699,1.665-2.598,2.814-3.58c2.214,0.167,4.661,0.1,5.993,1.199c0.899-2.498,2.964-5.762,6.794-4.013
							c0.283,1.465-0.982,2.23,0,3.196c0.499,0.366,2.348-1.349,3.597-1.599c-0.3-2.015,0.433-3.014,1.182-3.979
							c3.063,0.499,3.913-2.148,6.011-0.417c1.115-1.798,3.38-2.464,5.595-3.18c0.466,0.583,0.482,1.632,1.198,1.998
							c3.663-0.2,4.546-3.197,6.395-5.195c0.449,0.333,1.065,0.517,1.997,0.383c0.999-0.316,0.55-2.098,1.199-2.797
							c2.464,2.164,6.943-0.35,11.189,0c0.615,0.583,0.35,2.048,0.399,3.197c-4.329,1.281-7.01,4.195-10.807,6.011
							c0.2-1.266-0.333-1.799-1.581-1.599c-1.565,0.366-0.35,2.015-0.4,3.196c-1.682,1.382-5.095,1.032-5.194,3.979
							c-1.532,0.2-2.564-0.1-3.197-0.782c-0.1,3.264-1.132,6.826-5.594,6.793c0.749-1.515,2.613-1.932,2.78-4.013
							c-1.349-1.332-1.915,1.516-3.597,1.199c-2.48,5.262-9.141,6.344-12.554,10.673c-0.217,0.3-0.434,0.6-0.633,0.916
							c-4.862,0.066-5.678,4.179-9.99,4.812c-1.266,1.915-2.814,3.563-4.778,4.795c-3.313,0.3-5.978,0.033-9.191,1.183
							c-4.795,1.715-6.91,5.312-10.789,6.81c-8.109,3.097-16.634,0.217-24.776,1.582c-0.316-0.883-0.849-1.549-0.799-2.78
							C301.923,517.899,300.358,518.332,298.543,518.499z"/>
						<path fill="#FFFFFF" d="M320.122,526.508c1.216,9.641-9.141,4.412-14.785,4.379c0.599-2.747,4.129-1.549,6.394-1.998
							C314.91,528.256,316.209,526.475,320.122,526.508z"/>
						<path fill="#FFFFFF" d="M308.533,551.666c-1.448,0.25-1.931-0.449-2.797-0.799c-0.216-3.131,1.249-7.692,1.998-11.173
							C310.115,541.343,308.75,548.719,308.533,551.666z"/>
						<path fill="#FFFFFF" d="M304.538,569.665c0.583-2.747,0.999-5.661,3.996-6.011c0.6,0.865,0.8,2.098,0.683,3.28
							c-0.116,1.432-0.666,2.813-1.481,3.513C306.502,570.364,305.47,570.048,304.538,569.665z"/>
						<path fill="#27649B" d="M306.536,230.383c-0.916,29.138,1.166,59.991-7.992,82.319c-1.582-0.766-3.13-1.515-4.662-2.265
							l0.666-1.332c8.242-19.264,4.362-62.488-1.598-77.124l11.988-5.994c0,0,9.774,2.131,14.386,3.197
							c13.054,3.063,29.138,7.459,41.941,9.99c-5.494,11.022-11.988,21.046-18.365,31.169c-0.3,1.232-10.307,17.183-14.103,26.524
							c-1.365,2.864-4.579,13.154-6.277,18.232l-0.832,1.449c-0.533-0.333-1.065-0.683-1.565-1.049
							c7.276-29.621,23.727-50.051,36.764-73.911C340.186,237.759,323.086,234.346,306.536,230.383z"/>
						<path fill="#FFFFFF" d="M305.337,455.761c1.282,0.2,1.582,2.231,0.399,2.797C303.805,458.758,304.587,456.243,305.337,455.761
							z"/>
						<path fill="#FFFFFF" d="M305.337,478.538c-4.246,0.649-5.562-1.632-7.593-3.196c1.499-5.195,2.231-13.138,9.99-10.773
							C308.251,468.765,307.651,474.858,305.337,478.538z"/>
						<path fill="#FFFFFF" d="M293.349,585.232c2.564-0.849,5.528-1.082,8.708-1.032c6.477,0.033,13.77,1.149,20.063,0.25
							c4.229-0.616,6.693-2.881,10.39-1.199c0.35,3.015-2.231,3.081-3.196,4.796c0.449,1.531,3.313,4.029,1.198,5.578
							c-2.131-1.05-1.349-5.046-3.996-5.578c-2.88,1.032,1.299,4.179-0.399,6.394c-2.164-0.517-2.064-3.28-2.397-5.611
							c-2.064-0.749-4.862-2.164-6.794-0.782c0.018,2.747,2.831,7.076-0.399,8.392c-2.314-0.766-0.1-6.044-2.397-6.793
							c-3.58,0.782,0.35,5.444-1.599,6.793c-2.48-0.466-1.831-4.046-1.998-6.793c-0.683,0-1.049-0.3-1.198-0.816
							c-0.999,0.217-1.433,0.982-1.998,1.599c1.065,1.448,1.731,4.563,0.799,6.793c-3.047-0.549-1.832-5.361-2.797-7.976
							c-2.931,0.683-1.049,5.412-1.199,7.976c-2.547,0.6-8.025,0.899-9.99-0.399C295.363,592.759,294.98,588.446,293.349,585.232z"
							/>
						<path fill="#FFFFFF" d="M298.543,573.262c0.949-0.75,1.832-1.083,2.631-1.083c2.73,0,4.313,3.847,2.963,7.477
							c-0.699,0.316-1.365,0.466-1.998,0.466C299.06,580.121,297.245,576.491,298.543,573.262z"/>
						<path fill="#FFFFFF" d="M297.978,554.946c-0.516-0.732-0.666-1.665-0.233-2.881c6.161,0.416,18.748,4.729,23.977-0.782h1.198
							c-0.083,2.464-2.88,3.946-6.327,4.828c-2.913,0.732-6.276,1.049-8.857,1.149C304.488,557.394,299.542,557.127,297.978,554.946
							z"/>
						<path fill="#FFFFFF" d="M290.951,596.438c-2.515-0.999,0.25-2.964,0.399-4.812C293.182,592.226,291.9,596.039,290.951,596.438
							z"/>
						<path fill="#FFFFFF" d="M288.953,578.057c-7.509,1.415-4.746-8.725,1.199-5.611
							C290.934,574.344,290.135,576.941,288.953,578.057z"/>
						<path fill="#FFFFFF" d="M258.583,593.625c8.192,0.333,15.718,4.595,25.575,5.61c7.493,0.767,14.153,1.698,22.378,0.8
							c1.249-0.15,2.264-0.982,3.596-1.216c2.148-0.366,4.329-0.616,6.527-0.799c5.894-0.5,11.921-0.633,17.849-1.981
							c4.362-0.999,9.641-1.965,14.603-3.28c4.462-1.183,8.708-2.664,11.755-4.712c0.883-0.583,2.414-1.599,4.013,0
							c0.566,8.358-11.705,7.159-16.783,11.188c-6.577,0.217-12.871,4.529-19.182,2.397c-5.86,3.147-16.434,2.349-25.574,2.798
							c-11.439,0.549-23.477,0.649-34.766-2.015C263.262,601.184,256.718,599.402,258.583,593.625z"/>
						<path fill="#FFFFFF" d="M282.559,470.945c0.3-2.348,2.131-3.18,4.396-3.596c0.982,1.698-1.349,3.063-1.599,4.795
							C284.008,472.161,283.242,471.595,282.559,470.945z"/>
						<path fill="#FFFFFF" d="M279.362,467.35c0.417,2.031-2.231,2.697-1.998,0.416C277.814,467.416,278.43,467.232,279.362,467.35z
							"/>
						<path fill="#FFFFFF" d="M272.169,578.839c1.049-0.116,1.299,0.566,1.199,1.599
							C272.303,580.57,272.053,579.888,272.169,578.839z"/>
						<path fill="#FFFFFF" d="M272.969,512.105c-2.98-4.446,1.582-9.824,0.399-16.784c0.833-0.882,1.315-2.131,3.197-1.998
							c1.849-3.08,0.533-11.105,5.062-10.473c0.167,0.017,0.35,0.05,0.533,0.1c2.348,4.18-0.882,8.691-3.197,10.773
							c0.866,7.275-4.129,12.371-2.398,17.599c1.266,3.847,8.342,7.06,11.189,10.373c-5.678-0.166-11.638-0.083-11.189-6.394
							c-0.916-1.881-2.464-1.798-3.413-2.947C273.085,512.271,273.035,512.188,272.969,512.105z"/>
						<path fill="#27649B" d="M345.297,467.766c-0.232,4.879,1.865,7.442,4.396,9.574c1.215-0.982-0.483-2.415,0-3.996
							c5.145-0.75,6.776,2.015,10.789,2.397c-2.165-5.179-9.058-7.692-13.986-8.792C345.913,467.05,345.813,467.615,345.297,467.766
							z M344.481,480.137c2.231-6.46-3.413-11.306-7.576-13.97c-0.749,2.78,1.249,5.528,2.397,8.774
							C340.285,477.756,341.135,481.252,344.481,480.137z M322.919,454.578c0.101,1.749-0.083,3.813,1.998,3.58
							C325.284,456.543,325.084,454.646,322.919,454.578z M321.321,464.152c-3.081,0.799-2.897,16.034,1.198,17.2
							c1.998,0.565,3.447-0.25,5.595-1.998C327.415,474.692,326.35,462.87,321.321,464.152z M318.923,454.962
							c-1.215,0.815-0.882,3.446,0.4,3.996C320.172,458.508,320.955,454.762,318.923,454.962z M312.93,456.177
							c1.198-0.565,0.981-3.047-0.4-3.196C311.614,453.546,311.514,455.827,312.93,456.177z M314.128,465.352
							c-3.879,1.498-5.062,14.036-1.198,14.402C317.075,480.12,315.526,467.799,314.128,465.352z M297.744,475.342
							c2.031,1.564,3.347,3.846,7.593,3.196c2.314-3.68,2.914-9.773,2.397-13.97C299.976,462.204,299.243,470.146,297.744,475.342z
							 M282.559,470.945c0.683,0.649,1.449,1.216,2.797,1.199c0.25-1.731,2.581-3.097,1.599-4.795
							C284.69,467.766,282.859,468.598,282.559,470.945z M277.364,467.766c-0.233,2.281,2.415,1.615,1.998-0.416
							C278.43,467.232,277.814,467.416,277.364,467.766z M280.162,472.544c-4.129-1.682-7.875-3.996-11.339-5.095l0.6-1.865
							c0.732,0.35,1.398,0.8,1.948,1.365c1.998-1.198,5.511-0.865,7.593-1.998c4.729-4.479,4.729-12.953,6.394-21.179
							c7.659-37.879,16.534-77.873,28.589-111.023l2.264,0.816c-2.064,5.478-7.925,27.207-8.075,27.972c0-0.017,0-0.05,0-0.066
							c-8.308,31.252-15.118,64.003-21.179,97.487c4.595-0.3,5.927-4.962,8.791-7.193c2.348-1.831,4.945-2.564,8.392-3.597
							c2.914-3.563-0.683-9.59,1.998-13.569c7.793-4.879,13.037,4.778,7.992,10.772c1.099,3.063,4.412,2.431,6.793,3.196
							c5.812,1.915,10.807,6.261,13.986,11.206c5.861-1.315,7.793,2.947,11.189,4.795c2.514,1.365,7.509,1.815,10.789,3.58
							c4.029,2.215,7.459,6.544,10.772,6.793c0.217,0.017,0.417,0.017,0.633,0.017l0.066,2.215c-2.88,0.083-5.794,1.798-7.492,3.363
							h-0.383c-11.938,0.416-19.098,4.695-30.37,4.013c-11.872-0.732-25.159-2.197-35.166-6.011
							C290.135,476.724,284.974,474.525,280.162,472.544z M305.736,458.558c1.182-0.565,0.882-2.597-0.399-2.797
							C304.587,456.243,303.805,458.758,305.736,458.558z"/>
						<path fill="#FFFFFF" d="M269.772,585.232c-0.75,2.731-2.714,4.229-3.597,6.794
							C262.662,590.028,266.425,580.171,269.772,585.232z"/>
						<path fill="#FFFFFF" d="M263.778,466.949c1.615-0.299,3.297-0.05,5.045,0.5c3.463,1.099,7.209,3.413,11.339,5.095
							c4.812,1.981,9.974,4.18,14.785,5.994c10.007,3.813,23.293,5.278,35.166,6.011c11.272,0.683,18.432-3.597,30.37-4.013
							c-2.681,3.847-8.892,3.913-14.386,5.195c-4.962,1.165-10.606,3.18-15.585,3.612c-0.683,0.051-1.415,0.084-2.164,0.084
							c-5.245,0-11.988-1.249-17.816-2.099c-11.055-1.581-18.748-3.995-28.088-7.026c-2.115-0.683-4.329-1.398-6.677-2.147
							C270.521,476.474,258.083,473.21,263.778,466.949z"/>
						<path fill="#27649B" d="M290.951,596.438c0.949-0.399,2.231-4.213,0.399-4.812
							C291.201,593.475,288.437,595.439,290.951,596.438z M290.152,572.445c-5.944-3.113-8.708,7.026-1.199,5.611
							C290.135,576.941,290.934,574.344,290.152,572.445z M273.368,580.438c0.1-1.032-0.15-1.715-1.199-1.599
							C272.053,579.888,272.303,580.57,273.368,580.438z M269.772,585.232c-3.347-5.062-7.11,4.796-3.597,6.794
							C267.058,589.462,269.022,587.964,269.772,585.232z M268.573,605.213c-6.061-1.481-17.1-4.629-16.384-10.772
							c0.366-3.33,4.229-3.896,7.193-5.195c1.481-3.33,4.645-4.645,7.592-7.209c2.314-2.015,3.546-4.896,5.595-5.978
							c2.314-1.249,5.012-0.699,7.592-1.599c4.113-1.465,8.591-7.126,14.785-7.209c0.616-3.313,3.18-5.179,2.797-9.175
							c-0.116-1.132-0.549-2.031-0.999-2.847l1.232-0.283c1.565,2.181,6.51,2.447,9.757,2.314c2.581-0.101,5.944-0.417,8.857-1.149
							l0.733,2.747c0.316,2.265,0.616,4.563,1.132,6.627l-2.031,0.5c-0.184-0.833-0.6-1.415-1.498-1.516
							c-0.566,0.483-1.066,1.599-1.183,2.681l-4.529-0.216c0.117-1.183-0.083-2.415-0.683-3.28c-2.997,0.35-3.413,3.264-3.996,6.011
							l-3.363,2.514c-0.799,0-1.682,0.333-2.631,1.083c-1.299,3.229,0.516,6.859,3.597,6.859l-0.083,4.079
							c-3.18-0.05-6.144,0.184-8.708,1.032c1.632,3.214,2.015,7.526,0.799,11.589c1.964,1.299,7.442,0.999,9.99,0.399
							c0.15-2.563-1.731-7.293,1.199-7.976c0.965,2.614-0.25,7.427,2.797,7.976c0.933-2.23,0.267-5.345-0.799-6.793
							c0.565-0.616,0.999-1.382,1.998-1.599c0.149,0.517,0.516,0.816,1.198,0.816c0.167,2.747-0.482,6.327,1.998,6.793
							c1.948-1.349-1.981-6.011,1.599-6.793c2.298,0.749,0.083,6.027,2.397,6.793l0.134,1.582c-2.198,0.183-4.379,0.433-6.527,0.799
							c-1.332,0.233-2.348,1.065-3.596,1.216c-8.225,0.898-14.885-0.033-22.378-0.8c-9.857-1.016-17.383-5.277-25.575-5.61
							c-1.865,5.777,4.679,7.559,9.99,8.791c11.289,2.664,23.327,2.563,34.766,2.015c9.141-0.449,19.714,0.35,25.574-2.798
							c6.311,2.132,12.604-2.181,19.182-2.397c5.078-4.029,17.35-2.83,16.783-11.188c-1.599-1.599-3.13-0.583-4.013,0
							c-3.047,2.048-7.293,3.529-11.755,4.712l-0.616-2.331c3.696-1.481,7.31-3.063,10.789-4.795c-0.033-0.55-0.116-1.05-0.25-1.499
							l2.647-0.1c1.732,0,3.597-0.117,4.796,0.416c7.076,10.323-12.505,16.234-23.178,19.164
							C320.705,609.858,292.699,611.174,268.573,605.213z"/>
						<path fill="#FFFFFF" d="M258.982,522.095c5.678,1.948,9.741,16.334,3.197,19.98c-1.848,1.032-7.759,1.516-8.392-2.381
							c1.715-2.281,7.659-0.333,8.392-3.597C263.095,529.688,258.3,526.94,258.982,522.095z"/>
						<path fill="#FFFFFF" d="M232.209,326.688c3.846-15.851,8.808-30.604,13.187-45.955c17.366,13.303,31.502,21.329,48.485,29.704
							c1.532,0.75,3.081,1.499,4.662,2.265c9.158-22.328,7.076-53.181,7.992-82.319c16.55,3.963,33.65,7.376,50.35,11.206
							c-13.037,23.86-29.487,44.29-36.764,73.911c0.5,0.366,1.032,0.716,1.565,1.049c15.95,9.89,47.087,6.51,67.966,3.347
							c-3.196,14.269-7.459,27.456-11.188,41.159c-19.215-12.221-34.55-29.088-63.204-31.885c-0.45,1.182-0.883,2.381-1.315,3.58
							c-12.055,33.15-20.93,73.145-28.589,111.023c-1.665,8.226-1.665,16.7-6.394,21.179c-2.082,1.133-5.595,0.8-7.593,1.998
							c-0.549-0.565-1.215-1.016-1.948-1.365c-5.128-2.414-13.52,0.384-9.241,6.96c-2.397,0.399-3.313,3.28-5.594,3.646
							c-0.649,0.1-1.432,0-2.397-0.449c-2.098-11.422,3.38-20.43,7.193-29.555c15.501-37.279,27.489-78.289,37.679-121.03
							C276.065,318.08,255.153,321.344,232.209,326.688z"/>
						<path fill="#27649B" d="M255.386,478.155c-0.183,0.033-0.366,0.05-0.533,0.066l-0.267-2.031
							c2.281-0.366,3.197-3.247,5.594-3.646c-4.279-6.576,4.113-9.374,9.241-6.96l-0.6,1.865c-1.748-0.55-3.43-0.799-5.045-0.5
							c-5.694,6.261,6.743,9.524,11.988,11.206c2.348,0.749,4.562,1.465,6.677,2.147l-0.816,2.548
							c-4.529-0.633-3.213,7.393-5.062,10.473c-1.881-0.133-2.364,1.116-3.197,1.998c1.182,6.96-3.38,12.338-0.399,16.784
							c0.066,0.083,0.117,0.166,0.183,0.249l-3.264,0.366c-2.664-3.363-5.844-7.06-6.11-11.389c-0.117-1.831,0.45-5.211,1.998-6.793
							c1.998-0.482,3.48,1.016,4.795,0c0.083-2.364-3.031-1.516-3.597-3.197c1.532-3.813,3.646-7.01,5.595-10.406
							c-2.664-4.545-7.859-1.581-9.99,0.417c-2.265,2.098-2.514,6.094-3.996,9.573c-0.267,0.616-1.798,1.433-2.398,2.798
							c-1.265,2.913-0.35,6.51-1.998,6.394c-0.333-0.017-0.6-0.184-0.783-0.45c-1.116-1.598,0.233-6.993,0.783-8.741
							c1.548-4.979,3.663-6.81,3.996-11.571c1.499-0.699,3.747-1.648,2.797-3.613C258.916,474.775,257.833,477.723,255.386,478.155z
							"/>
						<path fill="#27649B" d="M365.277,503.713c-1.232-0.282-1.465,0.417-2.397,0.4v1.198
							C363.729,506.062,365.594,505.378,365.277,503.713z M317.325,551.666c2.73-3.214,1.382-10.739-0.4-13.97h-1.198
							C315.893,541.409,313.212,549.935,317.325,551.666z M311.73,528.889c-2.265,0.449-5.794-0.749-6.394,1.998
							c5.645,0.033,16.001,5.262,14.785-4.379C316.209,526.475,314.91,528.256,311.73,528.889z M305.736,550.867
							c0.866,0.35,1.349,1.049,2.797,0.799c0.217-2.947,1.582-10.323-0.799-11.972C306.985,543.175,305.52,547.736,305.736,550.867z
							 M255.386,510.107c-2.364-2.398-3.896-5.678-5.611-8.725l2.748-1.149c1.049,1.482,2.314,2.914,3.663,4.679
							c4.379,5.728,11.206,11.855,17.183,13.587c-0.466-1.849-1.881-3.746-3.48-5.778l3.264-0.366
							c0.949,1.149,2.498,1.066,3.413,2.947c-0.449,6.311,5.511,6.228,11.189,6.394c-2.847-3.313-9.923-6.526-11.189-10.373
							c-1.731-5.228,3.264-10.323,2.398-17.599c2.314-2.082,5.544-6.594,3.197-10.773c-0.183-0.05-0.366-0.083-0.533-0.1
							l0.816-2.548c9.341,3.031,17.033,5.445,28.088,7.026c5.828,0.85,12.571,2.099,17.816,2.099v1.065
							c-1.416,0-2.798,0.399-3.431,1.232c-0.066,1.265,1.05,1.349,0.8,2.813c-0.233,1.099-1.549,1.115-2.397,1.599
							c-2.398-0.283-0.866-4.479-3.996-4.013c-1.216,1.432,1.781,3.696-0.8,4.412c-0.316-0.899-0.849-1.565-0.799-2.813
							c-4.329-0.101-1.549,4.528-4.795,5.194c-2.198-0.732-1.449-4.412-3.597-5.194c-0.866,2.348-2.814,3.596-4.795,4.795v3.197
							c-2.564,1.182-4.612,2.863-7.593,3.596c-0.882,5.295,0.849,8.459,1.599,13.188c1.815-0.167,3.38-0.6,5.594-0.383
							c-0.05,1.231,0.483,1.897,0.799,2.78c8.142-1.365,16.667,1.515,24.776-1.582c3.879-1.498,5.994-5.095,10.789-6.81
							c3.214-1.149,5.878-0.883,9.191-1.183c1.964-1.231,3.513-2.88,4.778-4.795c4.313-0.633,5.128-4.745,9.99-4.812
							c0.199-0.316,0.416-0.616,0.633-0.916l2.147,0.849c-0.149,0.267-0.267,0.55-0.366,0.866c1.315-0.666,3.496-1.266,4.729-2.265
							l1.665,2.182c-13.437,10.373-28.405,18.448-48.353,23.26c-3.097,5.195-6.843,13.271-1.598,19.581
							c1.415,1.715,3.896,1.781,4.396,4.013c0.565,2.547-1.748,4.712-1.998,7.192c-0.2,1.882,0.033,3.297,0.516,4.496l-2.081,0.25
							c-1.182-3.597-3.479-5.994-6.826-2.365l-0.733-2.747c3.447-0.882,6.244-2.364,6.327-4.828h-1.198
							c-5.229,5.511-17.816,1.198-23.977,0.782c-0.433,1.216-0.283,2.148,0.233,2.881l-1.232,0.283
							c-0.716-1.365-1.515-2.564-0.999-4.362c0.649-2.331,2.647-2.132,4.795-3.597c0.167-3.996,2.098-6.311,1.199-9.574
							c-1.032-3.68-7.043-5.527-6.793-9.99c-5.827-0.982-11.622-1.965-16.783-3.613c-1.698,9.241-1.981,19.881-2.797,29.971
							c-0.932,0.1-1.832,0.333-2.681,0.666l-1.715-3.063c0.933-9.574,1.215-19.83,2.397-29.171
							C266.475,518.782,260.281,515.086,255.386,510.107z"/>
						<path fill="#FFFFFF" d="M252.522,500.233c-0.184-0.25-0.35-0.499-0.517-0.749l1.399,0.183c0.183,0.267,0.45,0.434,0.783,0.45
							c1.648,0.116,0.732-3.48,1.998-6.394c0.6-1.365,2.131-2.182,2.398-2.798c1.482-3.479,1.731-7.476,3.996-9.573
							c2.131-1.998,7.326-4.962,9.99-0.417c-1.948,3.396-4.063,6.594-5.595,10.406c0.566,1.682,3.68,0.833,3.597,3.197
							c-1.315,1.016-2.797-0.482-4.795,0c-1.548,1.582-2.115,4.962-1.998,6.793c0.267,4.329,3.447,8.025,6.11,11.389
							c1.599,2.032,3.014,3.93,3.48,5.778c-5.977-1.731-12.804-7.859-17.183-13.587
							C254.836,503.147,253.571,501.716,252.522,500.233z"/>
						<path fill="#FFFFFF" d="M268.573,530.487c-2.131-13.82-20.996-19.564-30.903-25.559c-0.666-0.399-1.299-0.815-1.865-1.216
							c1.448-3.596,2.914-7.209,4.396-10.772c4.895,0.916,7.376,4.496,9.574,8.442c1.715,3.047,3.247,6.326,5.611,8.725
							c4.895,4.979,11.089,8.675,17.982,12.388c-1.182,9.341-1.465,19.597-2.397,29.171c-4.346-1.249-9.341-1.849-13.586-3.197
							c0.416-0.066,0.816-0.166,1.215-0.282C265.31,546.305,269.855,538.945,268.573,530.487z"/>
						<path fill="#FFFFFF" d="M246.595,489.344c0.933,0.101,0.216,1.749,0,1.998C245.18,491.026,246.128,489.943,246.595,489.344z"
							/>
						<path fill="#FFFFFF" d="M242.999,525.691c2.314,1.731,4.445,8.275,1.199,10.807
							C242.033,534.916,235.656,525.741,242.999,525.691z"/>
						<path fill="#FFFFFF" d="M238.203,544.073c-5.761-3.496-9.74-13.637-5.694-20.047c0.15-0.232,0.316-0.482,0.5-0.716
							c4.212-5.544,10.473,1.981,3.197,3.58c-0.216,3.347,3.513,4.229,3.996,7.192c0.383,2.531-1.565,4.296-0.799,7.21
							c3.979,5.128,12.104-1.016,15.584,4.379C249.076,546.787,241.933,546.354,238.203,544.073z"/>
						<path fill="#27649B" d="M253.788,539.694c0.633,3.896,6.543,3.413,8.392,2.381c6.544-3.646,2.481-18.032-3.197-19.98
							c-0.683,4.846,4.113,7.593,3.197,14.003C261.447,539.361,255.502,537.413,253.788,539.694z M242.999,525.691
							c-7.343,0.05-0.966,9.225,1.199,10.807C247.444,533.967,245.313,527.423,242.999,525.691z M233.008,509.724
							c1.532,0.034,4.412,0.982,3.996-2.813c-0.267-0.333-0.583-0.449-0.916-0.449l1.582-1.532
							c9.907,5.994,28.771,11.738,30.903,25.559c1.282,8.458-3.264,15.817-9.974,17.699l-3.613-2.515
							c-3.48-5.395-11.605,0.749-15.584-4.379c-0.766-2.914,1.182-4.679,0.799-7.21c-0.483-2.964-4.212-3.846-3.996-7.192
							c7.276-1.599,1.016-9.124-3.197-3.58c-0.183,0.233-0.35,0.483-0.5,0.716l-0.766-0.532c2.131-3.014,5.778-4.846,11.256-4.18
							c4.495,0.55,6.56,3.83,11.588,4.778c-1.365-3.896-6.027-5.561-9.59-7.575c-3.73-2.115-8.325-4.362-12.388-5.195l0.167-1.615
							C232.858,509.724,232.925,509.724,233.008,509.724z"/>
						<path fill="#FFFFFF" d="M233.008,543.291c-4.263-0.55-7.892-1.698-11.988-2.414c2.831-9.274,7.992-19.697,11.588-29.555
							c4.063,0.833,8.658,3.08,12.388,5.195c3.563,2.015,8.225,3.68,9.59,7.575c-5.028-0.948-7.093-4.229-11.588-4.778
							c-5.478-0.666-9.125,1.166-11.256,4.18C227.98,528.839,228.962,537.896,233.008,543.291z"/>
						<path fill="#FFFFFF" d="M223.384,430.835c2.098,0.717,4.163,1.516,6.027,2.165c5.295,1.831,9.524,4.962,12.388,8.392
							c1.449,1.731,3.78,4.279,4.795,6.394c1.232,2.564,0.699,5.495,1.199,8.392c0.2,1.216,1.083,2.432,1.199,3.979
							c0.417,5.812-4.063,19.314,5.861,18.065c0.167-0.017,0.35-0.033,0.533-0.066c2.447-0.433,3.53-3.38,5.594-2.414
							c0.949,1.965-1.299,2.914-2.797,3.613c-0.333,4.762-2.447,6.593-3.996,11.571c-0.55,1.748-1.898,7.144-0.783,8.741
							l-1.399-0.183c-1.814-2.814-2.813-6.044-2.214-12.155c0.25-2.547,2.581-4.745,1.199-6.793
							c-3.713,0.566-1.665,6.877-6.793,6.011c-2.082-1.365,0.05-3.58,0-5.611c-0.05-1.198-0.999-2.28-0.799-3.596
							c0.466-3.214,3.946-5.795-0.399-8.792c2.297-3.579-2.048-5.811,0-9.174c-3.364-7.043-5.212-15.585-12.788-18.398
							c0.267-1.599-0.383-2.281-0.399-3.597c-3.097-0.499-4.679-2.515-7.193-3.597L223.384,430.835z"/>
						<path fill="#27649B" d="M205.835,492.125c0.516-0.55,1.732-0.383,2.797-0.399c-0.033,1.581-0.833,2.381-2.397,2.397
							C205.885,493.673,205.702,493.058,205.835,492.125z"/>
						<path fill="#27649B" d="M206.235,500.117c5.428,2.73,9.407,4.745,15.984,6.011c3.763,0.716,7.942,3.347,10.556,3.579
							l-0.167,1.615c-3.596,9.857-8.758,20.28-11.588,29.555c4.096,0.716,7.726,1.864,11.988,2.414
							c-4.046-5.395-5.028-14.452-1.266-19.797l0.766,0.532c-4.046,6.41-0.067,16.551,5.694,20.047
							c3.729,2.281,10.873,2.714,16.783,1.599l3.613,2.515c-0.399,0.116-0.799,0.216-1.215,0.282
							c4.246,1.349,9.241,1.948,13.586,3.197l1.715,3.063c-3.713,1.448-6.827,4.596-10.906,4.945
							c-3.58,0.283-9.524-2.381-13.986-3.597c-13.453-3.68-28.938-7.942-41.559-11.188c5.062-12.388,10.856-24.043,16.384-35.981
							c-6.51-2.215-12.888-4.828-18.731-8.175l0.832-1.449C205.186,499.567,205.702,499.851,206.235,500.117z"/>
						<path fill="#27649B" d="M201.839,491.726c0.283-1.433,0.783-2.664,2.797-2.382
							C205.219,491.575,203.337,492.857,201.839,491.726z"/>
						<path fill="#27649B" d="M199.841,488.528c-2.597,0.449-2.947-5.661-0.399-5.578
							C201.04,483.783,201.439,487.779,199.841,488.528z"/>
						<path fill="#27649B" d="M246.595,489.344c-0.466,0.6-1.415,1.683,0,1.998C246.811,491.093,247.527,489.444,246.595,489.344z
							 M194.247,450.966c1.465-3.613,4.562-5.112,7.193-7.193c1.382-1.082,1.449-2.497,2.797-3.196
							c8.175-4.18,18.598,0.216,25.575-0.4c-0.417-3.979-8.125-0.666-8.392-4.795c-0.083-0.999,0.616-1.249,1.199-1.599
							c2.514,1.082,4.096,3.098,7.193,3.597c0.017,1.315,0.666,1.998,0.399,3.597c7.576,2.813,9.424,11.355,12.788,18.398
							c-2.048,3.363,2.297,5.595,0,9.174c4.346,2.997,0.866,5.578,0.399,8.792c-0.2,1.315,0.749,2.397,0.799,3.596
							c0.05,2.031-2.082,4.246,0,5.611c5.128,0.866,3.08-5.444,6.793-6.011c1.382,2.048-0.949,4.246-1.199,6.793
							c-0.599,6.111,0.4,9.341,2.214,12.155c0.167,0.25,0.333,0.499,0.517,0.749l-2.748,1.149c-2.198-3.946-4.679-7.526-9.574-8.442
							c-1.482,3.563-2.947,7.177-4.396,10.772c0.566,0.4,1.199,0.816,1.865,1.216l-1.582,1.532c-0.882,0-1.948,0.799-3.08,0.449
							c-2.031-1.965-1.932-5.145-5.994-3.197c-2.681-3.746-6.277-5.078-9.99-7.991c-1.848-1.433-3.497-3.28-5.195-4.38
							c-1.149-0.749-2.598-0.716-3.596-1.598c-1.465-1.315-2.814-4.513-4.795-6.794
							C196.461,474.875,191.549,464.386,194.247,450.966z M209.032,442.174c-10.856,1.749-13.636,18.615-9.99,27.59
							c4.961,12.255,17.499,22.111,28.372,27.973c2.364-6.827,7.459-12.122,9.191-19.581
							C241.133,458.574,228.279,439.077,209.032,442.174z"/>
						<path fill="#27649B" d="M196.245,480.936c0.266,2.015-0.833,2.647-2.797,2.398c-0.466-0.467-0.466-1.399-0.399-2.398
							C194.113,480.936,195.179,480.936,196.245,480.936z"/>
						<path fill="#27649B" d="M189.052,475.342c-4.529-4.912-5.312-16.867-5.195-26.374c0.017-2.198,4.229-3.547,5.594-4.796
							c0-0.932,0-1.864,0-2.78c2.631-1.632,5.794-2.73,8.392-4.412c-0.183-1.365,0.15-2.231,0.4-3.197
							c1.598-0.116,2.214,0.716,3.996,0.399c4.262-3.646,10.656,0.167,14.386-1.182c0.216,0.966,1.532,0.849,1.199,2.381
							c-8.841-0.633-17.083,2.215-22.378,6.394c-0.566,1.149,1.082,2.031,0,2.397c-1.632,2.647-4.545,3.996-6.793,5.994
							c0.167,2.448-0.1,6.444,0.799,9.208c-4.262,6.16,4.013,14.136,1.199,20.38C187.853,480.753,187.503,476.141,189.052,475.342z"
							/>
						<path fill="#FFFFFF" d="M208.632,491.726c-1.065,0.017-2.281-0.15-2.797,0.399c-0.133,0.933,0.05,1.548,0.4,1.998
							C207.8,494.106,208.599,493.307,208.632,491.726z M201.839,491.726c1.499,1.132,3.38-0.15,2.797-2.382
							C202.622,489.062,202.122,490.293,201.839,491.726z M193.447,483.334c1.965,0.249,3.063-0.384,2.797-2.398
							c-1.066,0-2.131,0-3.197,0C192.981,481.935,192.981,482.867,193.447,483.334z M199.441,482.95
							c-2.547-0.083-2.198,6.027,0.399,5.578C201.439,487.779,201.04,483.783,199.441,482.95z M183.857,448.968
							c-0.117,9.507,0.666,21.462,5.195,26.374c-1.549,0.799-1.199,5.411,1.598,4.412c2.814-6.244-5.461-14.22-1.199-20.38
							c-0.899-2.764-0.633-6.76-0.799-9.208c2.248-1.998,5.162-3.347,6.793-5.994c1.082-0.366-0.566-1.248,0-2.397
							c5.295-4.179,13.537-7.026,22.378-6.394c0.333-1.532-0.982-1.415-1.199-2.381c-3.73,1.349-10.124-2.464-14.386,1.182
							c-1.782,0.316-2.398-0.516-3.996-0.399c-0.25,0.966-0.583,1.832-0.4,3.197c-2.597,1.682-5.761,2.78-8.392,4.412
							c0,0.916,0,1.849,0,2.78C188.086,445.421,183.874,446.77,183.857,448.968z M190.65,486.93
							c-3.097-4.245-7.259-10.656-9.59-16.783c-0.399-1.032-0.683-2.381-0.799-3.197c-2.081-14.419,3.23-25.924,11.988-32.351
							c4.212-3.114,8.808-4.13,15.584-4.796c1.599-0.166,3.13-1.148,4.795-1.215c3.23-0.117,7.06,0.982,10.756,2.247l-0.766,2.947
							c-0.583,0.35-1.282,0.6-1.199,1.599c0.267,4.129,7.976,0.815,8.392,4.795c-6.977,0.616-17.399-3.779-25.575,0.4
							c-1.349,0.699-1.416,2.114-2.797,3.196c-2.631,2.081-5.728,3.58-7.193,7.193c-2.697,13.42,2.214,23.909,9.191,31.984
							c1.981,2.281,3.33,5.479,4.795,6.794c0.999,0.882,2.447,0.849,3.596,1.598c1.698,1.1,3.347,2.947,5.195,4.38
							c3.713,2.913,7.31,4.245,9.99,7.991c4.063-1.947,3.963,1.232,5.994,3.197c1.132,0.35,2.198-0.449,3.08-0.449
							c0.333,0,0.649,0.116,0.916,0.449c0.416,3.796-2.464,2.848-3.996,2.813c-0.083,0-0.15,0-0.233-0.017
							c-2.614-0.232-6.793-2.863-10.556-3.579c-6.577-1.266-10.556-3.28-15.984-6.011c-0.533-0.267-1.049-0.55-1.516-0.833
							c-3.363-1.981-5.428-4.313-8.075-6.344C193.73,490.71,192.948,490.11,190.65,486.93z"/>
						<path fill="#27649B" d="M177.063,465.352c-0.666-23.527,14.103-39.328,34.366-39.562c9.59-0.1,24.909,5.096,30.77,10.79
							c3.347,3.279,5.078,7.192,6.793,12.804c2.797-3.13,3.88-7.459,5.595-11.206c11.622-25.392,21.729-54.596,29.404-84.882
							c0.966-4.013,6.11-22.678,6.161-25.808c-4.229-0.782-8.525-1.082-14.086-1.365c-17.433-1.032-43.74,7.093-54.646,10.157
							c4.479-18.149,14.203-54.746,14.203-54.746l9.558-4.562c0,0,10.489,7.06,13.253,9.058
							c2.781,1.998,22.145,15.651,36.114,23.077l-0.666,1.332c-16.983-8.375-31.119-16.4-48.485-29.704
							c-4.379,15.351-9.341,30.104-13.187,45.955c22.944-5.345,43.856-8.608,64.853-1.532
							c-10.19,42.741-22.178,83.751-37.679,121.03c-3.813,9.125-9.291,18.133-7.193,29.555c0.965,0.449,1.748,0.549,2.397,0.449
							l0.267,2.031c-9.924,1.249-5.445-12.254-5.861-18.065c-0.116-1.548-0.999-2.764-1.199-3.979
							c-0.5-2.896,0.033-5.827-1.199-8.392c-1.016-2.114-3.347-4.662-4.795-6.394c-2.864-3.43-7.093-6.561-12.388-8.392
							c-1.865-0.649-3.929-1.448-6.027-2.165c-3.696-1.265-7.526-2.364-10.756-2.247c-1.665,0.066-3.197,1.049-4.795,1.215
							c-6.776,0.666-11.372,1.682-15.584,4.796c-8.758,6.427-14.069,17.932-11.988,32.351c0.117,0.816,0.4,2.165,0.799,3.197
							c2.331,6.127,6.494,12.538,9.59,16.783c2.298,3.181,3.081,3.78,5.994,6.011c2.647,2.031,4.712,4.362,8.075,6.344l-0.832,1.449
							c-2.814-1.615-5.511-3.414-8.042-5.412C187.503,488.745,177.43,478.588,177.063,465.352z"/>
					</g>
					<g>
					</g>
				</g>
			</g>
		</g>
	</g>
</g>
</svg>
